<svg xmlns="http://www.w3.org/2000/svg" xmlns:xlink="http://www.w3.org/1999/xlink" width="500" zoomAndPan="magnify" viewBox="0 0 375 374.999991" height="500" preserveAspectRatio="xMidYMid meet" version="1.0"><defs><g/></defs><path stroke-linecap="butt" transform="matrix(0.75, 0, 0, 0.75, 30.076775, 126.499504)" fill="none" stroke-linejoin="miter" d="M 98.36639 105.313169 C 97.725765 105.74546 97.017431 105.74546 96.236181 105.313169 C 94.814306 104.672544 93.855973 103.62046 93.350765 102.167335 C 92.850765 100.709002 92.46014 99.318377 92.184098 97.979835 L 91.559098 94.344418 L 73.027847 61.255874 C 72.730972 60.891291 72.444513 60.500666 72.168472 60.089207 C 71.89243 59.651707 71.605971 59.255874 71.314305 58.891291 C 71.382013 62.511083 71.397638 66.136083 71.36118 69.755875 C 71.32993 73.375667 71.314305 77.000667 71.314305 80.620459 C 71.449721 82.750667 71.538263 84.880876 71.569513 87.016292 C 71.621596 89.146501 71.684096 91.276709 71.751805 93.406918 C 71.824721 94.46421 71.89243 95.755876 71.960138 97.281918 C 72.033055 98.80796 71.866388 100.172543 71.465346 101.386085 C 71.085138 102.584002 70.152846 103.292335 68.663263 103.516294 C 68.01743 104.573585 67.14243 105.292335 66.033054 105.677752 C 64.944513 106.073585 63.793471 106.099627 62.579929 105.755877 C 61.454929 105.459002 60.465346 104.781919 59.616387 103.724627 C 59.319512 99.255877 59.085137 94.787126 58.913262 90.313168 C 58.741387 85.844417 58.585137 81.375667 58.444512 76.901708 C 58.288262 73.281917 58.178887 69.641291 58.105971 65.985041 C 58.038262 62.328791 57.934096 58.693374 57.798679 55.068374 C 57.725762 52.729832 57.673679 50.39129 57.642429 48.052748 C 57.605971 45.698581 57.658054 43.386081 57.798679 41.115248 C 58.507012 40.557956 59.184096 40.245456 59.824721 40.177748 C 59.824721 39.313164 60.111179 38.490248 60.678887 37.708998 C 61.527846 36.651706 62.480971 36.141289 63.538263 36.177747 C 64.616388 36.208997 65.715346 36.599622 66.840346 37.344414 C 67.98618 38.089206 69.01743 38.948581 69.934096 39.917331 C 70.850763 40.870456 71.564305 41.656914 72.064305 42.281915 C 73.902847 44.708998 75.585138 47.188165 77.105972 49.714207 C 78.647639 52.229832 80.121597 54.792332 81.527847 57.412124 C 82.741389 59.474624 83.908056 61.568374 85.033056 63.698583 C 86.178889 65.828791 87.288264 67.995458 88.361181 70.198583 C 88.501806 70.474625 88.569514 70.828791 88.569514 71.261083 L 90.257014 74.563167 C 89.980973 71.860041 89.590348 69.125666 89.090348 66.349624 C 88.605973 63.578791 88.111181 60.849624 87.605973 58.162124 C 87.246597 56.240249 86.887222 54.323582 86.543472 52.417332 C 86.194514 50.495457 85.736181 48.573582 85.163264 46.651706 C 84.871597 45.662123 84.600764 44.656915 84.361181 43.636081 C 84.116389 42.594415 84.272639 41.547539 84.824722 40.490248 C 85.329931 39.641289 85.934097 39.000664 86.647639 38.568373 C 86.647639 38.495456 86.663264 38.464206 86.699722 38.464206 C 86.730972 38.464206 86.751806 38.427748 86.751806 38.360039 C 87.392431 37.146498 88.371598 36.537122 89.689306 36.537122 C 91.007014 36.537122 92.121598 36.860039 93.038265 37.500664 C 93.246598 37.568373 93.501806 37.750664 93.793473 38.047539 C 94.001806 39.031914 94.246598 40.047539 94.52264 41.089206 C 94.814306 42.11004 95.100765 43.115248 95.382015 44.104831 C 96.230973 47.151707 96.939306 50.29754 97.512223 53.537124 C 98.08514 56.761082 98.611182 59.964207 99.095557 63.151708 C 100.168473 69.61525 101.027848 76.151708 101.668473 82.750667 C 102.309098 89.354834 102.840349 95.922543 103.257015 102.453793 C 102.684099 103.235044 101.970557 103.906919 101.121598 104.479835 C 100.27264 105.037127 99.355973 105.313169 98.36639 105.313169 Z M 104.319515 101.386085 C 104.184099 101.386085 104.043474 101.490252 103.902849 101.698585 C 103.194515 91.547543 102.215348 81.417334 100.965348 71.313166 C 99.720557 61.198582 97.996598 51.208998 95.793473 41.349623 C 95.658056 40.912123 95.767431 40.526706 96.132015 40.177748 C 96.408056 39.813164 96.793473 39.651706 97.277848 39.682956 C 97.777848 39.719414 98.064307 40.021498 98.137223 40.594414 C 100.059098 49.813165 101.564307 59.125666 102.658057 68.531916 C 103.767432 77.943375 104.288265 87.370459 104.215349 96.813168 C 104.288265 97.156918 104.340349 97.818376 104.371599 98.787127 C 104.408057 99.740252 104.392432 100.610043 104.319515 101.386085 Z M 57.694512 93.615251 C 57.413262 89.854834 57.199721 85.938167 57.043471 81.86525 C 56.902846 77.776709 56.767429 73.807958 56.626804 69.964208 C 56.486179 66.203791 56.382012 62.406916 56.314304 58.578791 C 56.246595 54.750665 56.173679 50.92254 56.10597 47.089207 C 56.022637 46.17254 56.048679 45.23504 56.184095 44.287123 C 56.340345 43.313165 56.590345 42.406915 56.939304 41.557956 C 56.871596 43.255873 56.850762 44.958998 56.887221 46.677748 C 56.923679 48.375665 56.975762 50.073582 57.043471 51.771498 C 57.126804 55.458999 57.225762 59.151707 57.329929 62.844416 C 57.434096 66.531916 57.517429 70.255875 57.590346 74.016292 L 58.548679 97.979835 C 58.548679 97.979835 58.454929 97.828793 58.262221 97.516293 C 58.090346 97.18296 57.902846 95.886085 57.694512 93.615251 Z M 69.621596 88.391293 L 69.283055 88.703793 C 69.283055 88.703793 69.26743 88.703793 69.230971 88.703793 C 69.199721 88.703793 69.147638 88.740251 69.074721 88.807959 L 68.970555 95.203793 C 68.970555 96.052751 69.126805 97.063168 69.439305 98.240252 C 69.76743 99.40171 69.762221 100.656918 69.413263 102.011085 C 70.126805 100.813168 70.402846 99.610043 70.246596 98.396502 C 70.178888 97.412126 70.126805 96.386085 70.090346 95.328793 C 70.053888 94.255876 69.970555 93.18296 69.82993 92.110043 C 69.82993 91.485043 69.814305 90.870459 69.777846 90.261084 C 69.741388 89.656918 69.689305 89.031918 69.621596 88.391293 Z M 140.829934 101.802752 C 140.413268 101.662127 139.939309 100.917335 139.402851 99.568377 C 138.861184 98.21421 138.293476 96.552751 137.684101 94.578793 C 137.079934 92.584001 136.507017 90.521501 135.970559 88.391293 C 135.449726 86.261084 134.975767 84.344417 134.538267 82.646501 C 134.126809 80.948584 133.845559 79.703792 133.710142 78.906917 L 125.392433 79.037125 C 124.611183 82.224625 123.9341 85.396501 123.366392 88.547543 C 122.8091 91.698584 122.387225 94.917335 122.09035 98.188168 C 122.09035 98.834002 121.788266 99.15171 121.178891 99.15171 C 120.59035 99.15171 120.329933 98.834002 120.40285 98.188168 C 120.678891 95.000668 121.085141 91.797543 121.6216 88.573584 C 122.158058 85.334001 122.923683 82.151709 123.908058 79.037125 L 122.949725 79.037125 C 122.600766 80.297542 122.2466 81.844417 121.882016 83.662126 C 121.538266 85.464209 121.199725 87.240251 120.8716 88.990251 C 120.5591 90.724626 120.288266 92.177751 120.064308 93.354835 C 119.855975 94.516293 119.751808 95.099626 119.751808 95.099626 L 119.126808 99.880877 C 118.90285 102.30796 118.079933 104.047544 116.658058 105.104835 C 115.236183 106.177752 113.678891 106.604835 111.980974 106.375669 C 110.283057 106.167335 108.845557 105.354835 107.663266 103.93296 C 106.507015 102.511085 106.095557 100.563168 106.444515 98.084002 C 106.876807 94.969418 107.371599 91.849626 107.923682 88.729834 C 108.496599 85.594417 109.173682 82.500667 109.954932 79.448584 C 109.465349 79.5215 108.975766 79.573584 108.470557 79.604834 C 107.970557 79.641292 107.507015 79.656917 107.095557 79.656917 C 107.230974 79.313167 107.267432 78.99025 107.199724 78.698584 C 105.480974 78.281917 104.236182 77.36525 103.454932 75.943375 C 102.673682 74.5215 102.46014 72.943375 102.80389 71.209 C 103.168474 69.459 104.163265 67.860041 105.793474 66.401708 C 107.439307 64.948583 109.855974 63.974624 113.043474 63.490249 C 113.824724 59.938166 114.673683 56.438165 115.590349 52.990249 C 116.527849 49.542332 117.663266 46.188165 118.9966 42.932956 C 119.637225 41.511081 120.350766 39.969414 121.126808 38.307956 C 121.908058 36.641289 122.887225 35.188164 124.064308 33.938164 C 125.2466 32.693372 126.71535 32.068372 128.486184 32.068372 C 129.40285 32.000664 130.319517 32.250664 131.241392 32.823581 C 132.173684 33.396497 132.850767 34.104831 133.267434 34.953789 C 134.824726 35.021497 136.116392 35.578789 137.137226 36.615247 C 138.178893 37.641289 138.767434 39.000664 138.908059 40.698581 C 139.064309 42.82879 139.246601 44.979831 139.454934 47.14129 C 139.663268 49.307957 139.866393 51.42254 140.074726 53.48504 C 140.163268 53.552749 140.241393 53.589207 140.309101 53.589207 C 140.382018 51.73504 140.465351 49.906915 140.569518 48.104832 C 140.673684 46.287123 140.829934 44.490248 141.038268 42.724623 C 141.038268 42.432956 141.090351 43.073581 141.194518 44.646498 C 141.314309 46.208998 141.444518 48.208998 141.585143 50.651707 C 141.720559 53.094415 141.861184 55.54754 142.001809 58.005874 C 142.137226 60.448582 142.319518 62.485041 142.543476 64.115249 C 144.590351 64.323583 146.184101 65.016291 147.329935 66.193374 C 148.47056 67.375666 149.184102 68.724625 149.460143 70.250666 C 149.736185 71.776708 149.590352 73.281917 149.017435 74.7715 C 148.465352 76.261083 147.43931 77.464208 145.949726 78.386084 C 146.663268 81.505875 147.40806 85.037126 148.184101 88.990251 C 148.965352 92.922543 149.56431 96.485043 149.980977 99.672543 C 150.272643 102.078793 150.085143 103.906919 149.40806 105.156919 C 148.730977 106.40171 147.840351 107.094419 146.730976 107.235044 C 145.637226 107.375669 144.538268 106.985044 143.428893 106.063169 C 142.340351 105.146502 141.470559 103.724627 140.829934 101.802752 Z M 125.079933 65.182958 C 125.861183 65.042333 126.866392 64.953791 128.095559 64.922541 C 129.34035 64.886083 130.319517 64.833999 131.033059 64.766291 C 130.892434 63.828791 130.736184 62.511083 130.564309 60.813166 C 130.392434 59.115249 130.173684 57.297541 129.913267 55.354832 C 129.673684 53.396499 129.366392 51.594415 129.001809 49.948582 C 128.15285 52.932957 127.408058 55.599624 126.767433 57.953791 C 126.147642 60.297541 125.579933 62.703791 125.079933 65.182958 Z M 195.767438 47.29754 C 195.767438 49.568373 195.63723 51.823582 195.382021 54.057957 C 195.13723 56.292332 194.809105 58.547541 194.392438 60.813166 C 193.960146 62.948583 193.475771 65.110041 192.939313 67.313166 C 192.418479 69.511083 191.757021 71.6465 190.960146 73.709 C 190.184104 75.682958 189.350771 77.682959 188.465354 79.709 C 187.579937 81.74025 186.715354 83.745459 185.866396 85.740251 C 185.730979 86.016292 185.658062 86.193376 185.658062 86.261084 C 185.434104 86.625667 185.215354 87.005876 185.007021 87.401709 C 184.803896 87.787126 184.626812 88.146501 184.491396 88.495459 C 183.553895 90.125668 182.626812 91.651709 181.710145 93.068376 C 181.137229 93.917335 180.19452 95.073585 178.876812 96.52671 C 177.574728 97.979835 176.06952 99.422543 174.35077 100.83921 C 172.652853 102.261085 170.954936 103.396502 169.25702 104.24546 C 167.559103 105.094419 166.001811 105.344419 164.579936 105.000669 C 163.158061 104.65171 162.059102 103.412127 161.277852 101.281918 C 161.053894 100.709002 160.855977 100.12046 160.684102 99.516293 C 160.507019 98.906918 160.350769 98.318377 160.215352 97.750668 C 158.652852 97.193376 157.87681 96.02671 157.87681 94.240251 C 157.944519 93.250668 157.960144 92.229834 157.928894 91.172543 C 157.892435 90.099626 157.798685 89.031918 157.642435 87.974626 C 157.642435 87.750668 157.605977 87.604834 157.538269 87.531917 C 157.465352 87.188167 157.434102 86.875667 157.434102 86.599626 C 157.434102 86.302751 157.434102 86.016292 157.434102 85.740251 C 157.361185 84.959001 157.277852 84.214209 157.173685 83.505876 C 157.069519 82.792334 156.980977 82.084 156.913269 81.375667 C 156.40806 77.318375 155.767435 73.2715 154.991394 69.235041 C 154.642435 67.172541 154.272644 65.110041 153.871602 63.052749 C 153.475769 60.990249 153.06431 58.969416 152.652852 56.995457 C 152.215352 54.932957 151.75181 52.886082 151.246602 50.86004 C 150.762227 48.833998 150.382018 46.833998 150.100768 44.854831 C 150.017435 44.630873 150.074727 44.48504 150.28306 44.412123 C 150.512227 44.344415 150.65806 44.380873 150.725768 44.51629 L 151.68931 46.54754 C 151.413268 45.698581 151.090352 44.57879 150.725768 43.193373 C 150.382018 41.807956 150.204935 40.427748 150.204935 39.057956 C 150.204935 37.672539 150.543477 36.521497 151.22056 35.604831 C 151.897643 34.667331 153.048685 34.271497 154.678894 34.406914 C 157.293477 34.630872 159.329936 35.740247 160.783061 37.735039 C 162.241394 39.708998 163.288269 41.833998 163.928894 44.104831 C 164.710144 46.943373 165.418478 49.802748 166.064311 52.677749 C 166.704936 55.557957 167.272644 58.448582 167.777853 61.360041 C 167.986186 62.349624 168.277853 63.927749 168.66327 66.089208 C 169.059103 68.255875 169.465353 70.563166 169.88202 73.005875 C 170.314311 75.448583 170.704936 77.61525 171.053895 79.500667 C 171.418478 81.391292 171.63202 82.511084 171.699728 82.854834 C 172.91327 79.667334 173.996603 76.42775 174.949728 73.136083 C 175.902853 69.823583 176.736187 66.500666 177.44452 63.151708 C 178.38202 58.339207 179.059104 53.458999 179.47577 48.521498 C 179.908062 43.583998 180.043479 38.672539 179.887229 33.781914 C 179.887229 33.073581 180.22577 32.719414 180.902854 32.719414 C 181.579937 32.719414 181.949729 33.073581 182.022645 33.781914 C 182.38202 42.51629 181.78827 51.302748 180.22577 60.141291 C 178.668478 68.959 176.00702 77.380875 172.246603 85.401709 C 172.31952 85.469417 172.371603 85.651709 172.402853 85.948584 C 172.439311 86.224626 172.454936 86.432959 172.454936 86.573584 C 175.642437 80.542334 178.017437 74.584 179.574729 68.688166 C 181.137229 62.797541 182.168479 56.92254 182.668479 51.068373 C 183.173687 45.208998 183.387229 39.339206 183.31952 33.448581 C 185.730979 32.958997 187.996604 33.318372 190.132021 34.511081 C 190.980979 33.886081 191.861188 33.964206 192.783063 34.745456 C 193.559104 35.453789 194.090355 36.365247 194.366396 37.474623 C 194.663271 38.568373 194.944521 39.604831 195.225771 40.594414 C 195.517438 41.583998 195.69973 42.682956 195.767438 43.896498 C 195.840355 45.11004 195.840355 46.240248 195.767438 47.29754 Z M 253.986192 95.302751 C 252.996608 97.646501 251.319525 99.55796 248.944525 101.047543 C 246.569525 102.537127 244.168483 103.568377 241.746608 104.141294 C 238.991399 104.781919 236.225774 105.08921 233.45494 105.052752 C 230.678899 105.016294 227.871607 104.781919 225.033065 104.349627 C 222.262231 103.93296 219.637231 103.406919 217.158064 102.766293 C 216.652856 103.823585 215.980981 104.46421 215.132023 104.688169 C 214.642439 104.755877 214.152856 104.688169 213.647647 104.479835 C 213.147647 104.96421 212.574731 105.209002 211.934106 105.209002 C 211.220564 105.27671 210.527856 105.240252 209.855981 105.104835 C 209.194522 104.96421 208.579939 104.71421 208.007022 104.349627 C 206.866397 103.568377 206.04348 102.719418 205.538272 101.802752 C 205.053897 100.886085 204.673689 99.781918 204.397647 98.500668 C 202.678897 97.792335 200.991397 97.063168 199.32473 96.318376 C 197.663271 95.573585 196.017438 94.77671 194.38723 93.927751 C 192.814313 93.078793 191.814313 91.771501 191.397646 90.000668 C 190.965354 88.219418 191.215354 86.578792 192.152854 85.089209 C 193.001813 83.599626 194.29348 82.630876 196.027855 82.17775 C 197.757021 81.714209 199.371605 81.901709 200.861188 82.750667 L 201.303897 83.063167 C 201.23098 82.422542 201.121605 81.807959 200.965355 81.219417 C 200.82473 80.610042 200.689313 79.99025 200.548688 79.344417 C 199.423688 73.386083 198.236188 67.443375 196.986188 61.516291 C 195.741396 55.589207 194.517438 49.682957 193.324729 43.792331 C 193.236188 43.583998 193.158063 43.375665 193.090354 43.167331 C 193.017438 42.943373 192.949729 42.761081 192.882021 42.620456 C 192.605979 41.547539 192.788271 40.604831 193.428896 39.787123 C 194.069521 38.974623 194.845563 38.495456 195.767438 38.360039 C 196.04348 38.287123 196.303896 38.235039 196.54348 38.203789 C 196.803896 38.167331 197.038271 38.151706 197.246605 38.151706 C 197.611188 37.214206 198.288271 36.485039 199.272647 35.969414 C 200.26223 35.427747 201.361188 35.073581 202.57473 34.901706 C 203.788272 34.729831 204.783064 34.677747 205.564314 34.745456 C 209.100772 35.021497 212.236189 36.156914 214.975773 38.151706 C 217.710148 40.125664 220.319523 42.32879 222.79869 44.750665 C 225.569523 47.370457 228.314315 50.063165 231.038274 52.833999 C 233.772649 55.61004 236.423691 58.448582 238.991399 61.360041 C 239.908066 62.276707 240.809108 63.255874 241.694524 64.297541 C 242.574733 65.318374 243.408066 66.360041 244.189316 67.417333 C 245.538275 69.203791 246.840358 71.0215 248.08515 72.875667 C 249.33515 74.709 250.449733 76.651708 251.439317 78.698584 C 252.720567 81.193375 253.767442 83.896501 254.58515 86.807959 C 255.39765 89.719418 255.199734 92.552751 253.986192 95.302751 Z M 196.621605 51.563165 C 196.538271 51.354832 196.314313 51.01629 195.94973 50.54754 C 195.600771 50.07879 195.507021 50.23504 195.663271 51.01629 C 196.579938 54.708999 197.444521 58.380874 198.26223 62.037124 C 199.07473 65.693374 199.944522 69.36525 200.861188 73.057958 L 203.746605 84.443376 C 204.090355 84.594417 204.423689 84.776709 204.73098 84.985042 C 205.064314 85.193376 205.376814 85.370459 205.66848 85.505876 C 205.376814 84.589209 205.064314 83.688167 204.73098 82.802751 C 204.423689 81.917334 204.163272 81.016292 203.954938 80.099625 C 203.673688 79.094417 203.288272 77.620459 202.783063 75.682958 C 202.283063 73.724625 201.746605 71.557958 201.173688 69.182958 C 200.616397 66.792333 200.038272 64.427749 199.428897 62.089207 C 198.82473 59.750666 198.272646 57.646499 197.767438 55.771499 C 197.283063 53.886082 196.902855 52.479832 196.621605 51.563165 Z M 241.746608 84.026709 C 240.965358 82.813167 240.168483 81.589209 239.355982 80.360042 C 238.538274 79.11525 237.704941 77.92775 236.855982 76.797542 C 235.298691 74.667333 233.61119 72.604833 231.788274 70.61525 C 229.98619 68.620458 228.053898 66.740249 225.996607 64.974624 C 222.095565 61.349624 217.658064 58.120457 212.684106 55.276707 L 210.658064 54.214207 C 211.579939 58.615249 212.444522 63.052749 213.257022 67.5215 C 214.090356 71.99025 214.861189 76.42775 215.569523 80.828792 C 215.850773 82.386084 216.126814 83.974626 216.402856 85.584001 C 216.699731 87.177751 216.986189 88.792334 217.262231 90.417334 C 218.887231 90.990251 220.553898 91.547543 222.251815 92.084001 C 223.965356 92.599626 225.710148 93.042335 227.475773 93.406918 C 228.897648 93.68296 230.064315 93.891293 230.98619 94.031918 C 231.918482 94.172543 233.064315 94.27671 234.413274 94.344418 C 235.678899 94.344418 236.772649 94.30796 237.689316 94.240251 C 238.626816 94.172543 239.658066 93.99546 240.783066 93.719418 C 241.720566 93.511085 242.559108 93.250668 243.303899 92.938168 C 244.048691 92.610043 244.699733 92.193376 245.251816 91.693376 C 245.184108 90.979834 245.012233 90.323584 244.736191 89.719418 C 244.454941 89.110043 244.137233 88.495459 243.772649 87.870459 C 243.496608 87.229834 243.173691 86.573584 242.809108 85.896501 C 242.465358 85.219417 242.111191 84.594417 241.746608 84.026709 Z M 251.746608 48.781915 C 255.3039 46.943373 258.9914 45.386081 262.819526 44.104831 C 266.652859 42.818373 270.491401 41.682956 274.335151 40.698581 L 276.77786 40.047539 C 278.980985 39.630873 281.178902 39.235039 283.382027 38.854831 C 285.579944 38.453789 287.814319 38.182956 290.085152 38.047539 C 290.569528 37.979831 291.048694 37.943373 291.517444 37.943373 C 291.980986 37.943373 292.460153 37.943373 292.944528 37.943373 C 290.902861 38.427748 288.814319 38.938164 286.678902 39.474623 C 284.548694 40.011081 282.454944 40.526706 280.392444 41.011081 C 276.772652 41.787123 273.168485 42.630873 269.579943 43.531915 C 265.991401 44.412123 262.434109 45.45379 258.89765 46.651706 C 257.684109 47.011081 256.486192 47.427748 255.309109 47.896498 C 254.14765 48.349623 252.96015 48.86004 251.746608 49.432957 C 251.470567 49.292332 251.470567 49.073582 251.746608 48.781915 Z M 311.475779 92.110043 C 311.340362 92.750668 310.980987 93.104835 310.413279 93.172543 C 306.512237 93.886085 302.590362 94.761085 298.637236 95.797543 C 294.704944 96.823585 290.855986 98.005877 287.095569 99.360043 C 285.329944 100.000668 283.538277 100.641293 281.71536 101.281918 C 279.913277 101.922543 278.12161 102.636085 276.335152 103.412127 L 276.230985 103.412127 C 276.163277 103.485044 276.05911 103.537127 275.918485 103.568377 C 275.783068 103.604835 275.642443 103.656919 275.507027 103.724627 C 274.93411 104.005877 274.345568 104.255877 273.736193 104.479835 C 273.132026 104.688169 272.543485 104.93296 271.970568 105.209002 L 271.866401 105.313169 C 271.449735 105.604835 270.65286 105.96421 269.475776 106.375669 C 268.314318 106.813169 267.215359 107.167335 266.173693 107.443377 C 265.152859 107.740252 264.642442 107.886085 264.642442 107.886085 C 264.642442 107.886085 264.512234 107.90171 264.251817 107.938169 C 264.007026 107.969419 263.783067 107.990252 263.574734 107.990252 C 262.725776 108.125669 261.866401 108.120461 261.001817 107.96421 C 260.152859 107.823585 259.52265 107.297544 259.105984 106.375669 C 258.89765 105.96421 258.861192 105.469419 259.001817 104.896502 C 257.64765 104.323585 256.600775 103.344419 255.855984 101.959002 C 255.111192 100.573585 254.9914 99.21421 255.4914 97.880877 C 255.199734 96.02671 254.965359 94.162126 254.788275 92.292334 C 254.6164 90.401709 254.46015 88.531918 254.324733 86.677751 L 253.02265 73.912125 L 251.746608 61.776707 C 250.39765 60.287124 249.83515 58.547541 250.059108 56.552749 C 250.267442 54.57879 251.152858 52.912124 252.71015 51.563165 C 252.777858 51.42254 252.850775 51.287123 252.918483 51.146498 C 252.986192 50.990248 253.059108 50.844415 253.126817 50.70379 C 254.27265 50.20379 255.402859 49.740248 256.533067 49.32879 C 257.673692 48.89129 258.819525 48.505873 259.960151 48.156915 C 263.496609 46.943373 267.059109 45.896498 270.642443 45.011081 C 274.230985 44.130873 277.835152 43.333998 281.454944 42.620456 C 284.298694 41.979831 287.095569 41.287123 289.850777 40.542331 C 292.626819 39.797539 295.397653 39.068373 298.168486 38.360039 C 298.53307 38.427748 298.90807 38.479831 299.288278 38.516289 C 299.684111 38.547539 300.022653 38.636081 300.298695 38.776706 L 302.017445 39.422539 C 302.293487 39.630873 302.569528 39.865248 302.84557 40.125664 C 303.142445 40.370456 303.428903 40.594414 303.704945 40.802748 C 304.069528 41.943373 304.319528 43.073581 304.460153 44.182956 C 304.59557 45.271498 304.56432 46.344415 304.355987 47.401707 L 299.027861 49.01629 C 297.882028 49.36004 296.68932 49.714207 295.43932 50.07879 C 294.210153 50.427748 292.986194 50.771498 291.777861 51.120457 C 291.496611 51.276707 291.288278 51.354832 291.152861 51.354832 C 289.798694 51.698582 288.215361 52.14129 286.397652 52.677749 C 284.595569 53.219415 282.783069 53.755874 280.96536 54.292332 C 279.163277 54.813165 277.62161 55.287124 276.335152 55.719415 C 275.069526 56.136082 274.293485 56.412124 273.99661 56.552749 C 272.298693 57.125665 270.59036 57.729832 268.876818 58.370457 C 267.178901 59.011082 265.517443 59.688166 263.887234 60.396499 L 263.678901 60.604832 C 263.746609 60.953791 263.835151 61.542332 263.939317 62.375666 C 264.043484 63.188166 264.147651 63.953791 264.251817 64.662124 C 264.371609 65.370458 264.434109 65.828791 264.434109 66.037124 C 267.413276 64.755874 270.376818 63.500666 273.319526 62.271499 C 276.267443 61.021499 279.267443 59.828791 282.314319 58.682957 C 284.012235 58.266291 285.725777 57.823582 287.460152 57.360041 C 289.210152 56.89129 290.934111 56.412124 292.632028 55.927749 L 294.012236 55.589207 C 294.652861 55.45379 295.277861 55.365249 295.882028 55.32879 C 296.486195 55.29754 297.111195 55.245457 297.75182 55.17254 C 299.105986 55.104832 300.37682 55.198582 301.574737 55.458999 C 302.788278 55.70379 303.746612 56.458999 304.460153 57.719416 C 304.59557 57.875666 304.684112 58.026707 304.72057 58.162124 C 304.75182 58.302749 304.803903 58.443374 304.87682 58.578791 C 305.012237 58.787124 305.116403 59.005874 305.18932 59.229832 C 305.257028 59.438166 305.335153 59.646499 305.418487 59.854832 C 305.491403 59.922541 305.559112 59.958999 305.62682 59.958999 C 306.616404 60.458999 307.215362 61.349624 307.423695 62.636083 C 307.647654 63.620458 307.491404 64.636083 306.954945 65.677749 C 306.418487 66.698583 305.652862 67.459 304.668487 67.964208 C 303.522653 68.448583 302.361195 68.750666 301.184112 68.870458 C 300.022653 68.974625 298.84557 69.167333 297.647653 69.443375 C 296.366403 69.651708 295.069528 69.886083 293.751819 70.1465 C 292.434111 70.386083 291.142444 70.682958 289.876819 71.031916 C 287.314319 71.74025 284.767444 72.511083 282.236194 73.344417 C 279.725777 74.156917 277.230985 75.094417 274.751818 76.151708 C 273.194526 76.792333 271.68411 77.464208 270.230985 78.17775 C 268.772651 78.886084 267.298693 79.630875 265.809109 80.412125 L 266.434109 87.323584 C 266.434109 87.396501 266.434109 87.448584 266.434109 87.479834 C 266.434109 87.516292 266.434109 87.604834 266.434109 87.740251 L 266.772651 87.531917 C 267.965359 86.964209 269.152859 86.448584 270.335151 86.000667 C 271.512235 85.531917 272.663276 85.057959 273.788276 84.568376 L 282.835152 81.037125 C 283.616402 80.688167 284.413277 80.375667 285.225777 80.099625 C 286.059111 79.807959 286.861194 79.5215 287.642444 79.24025 C 288.908069 78.74025 290.184111 78.266292 291.465361 77.813167 C 292.746611 77.344417 294.017444 76.8965 295.283069 76.464208 L 299.444528 75.188167 C 300.017445 75.047542 300.585153 74.860042 301.15807 74.61525 C 301.730987 74.354833 302.293487 74.156917 302.84557 74.016292 C 304.90807 73.584 306.600779 73.766292 307.918487 74.563167 C 309.230987 75.344417 310.28307 76.479833 311.059112 77.969417 C 311.840362 79.459 312.423696 81.089209 312.803904 82.854834 C 313.199737 84.620459 313.434112 86.250667 313.501821 87.740251 C 313.574737 88.677751 313.408071 89.516293 313.012237 90.261084 C 312.626821 91.005876 312.116404 91.625668 311.475779 92.110043 Z M 285.720569 69.547541 C 284.09036 70.05275 282.43411 70.55275 280.757027 71.057958 C 279.09036 71.542333 277.444527 72.068375 275.819527 72.641292 C 274.741401 72.917333 273.694526 73.219417 272.673693 73.55275 C 271.647651 73.860042 270.637235 74.156917 269.632026 74.432958 C 269.423693 75.6465 268.861193 76.641292 267.939318 77.422542 C 270.55911 76.073583 273.236193 74.86525 275.970568 73.807958 C 278.710152 72.735042 281.387235 71.672541 284.001819 70.61525 C 284.574735 70.334 285.18411 70.084 285.824736 69.860041 Z M 262.199734 106.375669 C 262.975776 106.448585 263.861192 106.46421 264.850776 106.427752 C 265.835151 106.396502 266.408068 106.344419 266.564318 106.271502 C 266.704943 106.271502 266.809109 106.240252 266.876818 106.167335 C 267.293484 105.96421 267.715359 105.74546 268.147651 105.521502 C 268.585151 105.313169 268.970568 105.104835 269.319526 104.896502 C 270.168485 104.46421 271.001818 104.037127 271.814318 103.62046 C 272.626818 103.188169 273.423693 102.766293 274.204943 102.349627 L 274.204943 102.115252 C 273.288276 102.479835 272.335151 102.844418 271.345568 103.209002 C 270.361193 103.552752 269.361193 103.90171 268.355984 104.24546 C 267.371609 104.610044 266.355984 104.985044 265.314318 105.365252 C 264.293484 105.761085 263.257026 106.099627 262.199734 106.375669 Z M 311.043487 48.781915 C 314.595571 46.943373 318.288279 45.386081 322.116405 44.104831 C 325.94453 42.818373 329.783072 41.682956 333.63203 40.698581 L 336.074739 40.047539 C 338.272656 39.630873 340.475781 39.235039 342.673698 38.854831 C 344.876823 38.453789 347.111198 38.182956 349.382031 38.047539 C 349.866406 37.979831 350.340365 37.943373 350.809115 37.943373 C 351.277865 37.943373 351.751823 37.943373 352.241407 37.943373 C 350.194531 38.427748 348.10599 38.938164 345.975781 39.474623 C 343.845573 40.011081 341.746614 40.526706 339.684114 41.011081 C 336.064322 41.787123 332.460155 42.630873 328.871613 43.531915 C 325.28828 44.412123 321.72578 45.45379 318.189321 46.651706 C 316.975779 47.011081 315.783071 47.427748 314.605987 47.896498 C 313.444529 48.349623 312.257029 48.86004 311.043487 49.432957 C 310.767446 49.292332 310.767446 49.073582 311.043487 48.781915 Z M 370.772658 92.110043 C 370.632033 92.750668 370.277866 93.104835 369.704949 93.172543 C 365.809116 93.886085 361.882032 94.761085 357.928907 95.797543 C 353.996615 96.823585 350.152865 98.005877 346.392448 99.360043 C 344.621614 100.000668 342.829948 100.641293 341.012239 101.281918 C 339.210156 101.922543 337.413281 102.636085 335.63203 103.412127 L 335.527864 103.412127 C 335.460155 103.485044 335.355989 103.537127 335.215364 103.568377 C 335.074739 103.604835 334.939322 103.656919 334.798697 103.724627 C 334.22578 104.005877 333.637239 104.255877 333.033072 104.479835 C 332.423697 104.688169 331.835155 104.93296 331.262239 105.209002 L 331.158072 105.313169 C 330.746613 105.604835 329.949738 105.96421 328.767447 106.375669 C 327.605988 106.813169 326.50703 107.167335 325.470571 107.443377 C 324.44453 107.740252 323.934113 107.886085 323.934113 107.886085 C 323.934113 107.886085 323.803905 107.90171 323.543488 107.938169 C 323.303905 107.969419 323.074738 107.990252 322.871613 107.990252 C 322.022655 108.125669 321.16328 108.120461 320.293488 107.96421 C 319.444529 107.823585 318.814321 107.297544 318.397654 106.375669 C 318.189321 105.96421 318.158071 105.469419 318.293488 104.896502 C 316.944529 104.323585 315.892446 103.344419 315.147654 101.959002 C 314.402862 100.573585 314.283071 99.21421 314.788279 97.880877 C 314.491404 96.02671 314.257029 94.162126 314.085154 92.292334 C 313.913279 90.401709 313.757029 88.531918 313.616404 86.677751 L 312.314321 73.912125 L 311.043487 61.776707 C 309.68932 60.287124 309.12682 58.547541 309.355987 56.552749 C 309.559112 54.57879 310.444529 52.912124 312.007029 51.563165 C 312.074737 51.42254 312.142446 51.287123 312.215362 51.146498 C 312.283071 50.990248 312.350779 50.844415 312.418487 50.70379 C 313.564321 50.20379 314.699737 49.740248 315.824738 49.32879 C 316.970571 48.89129 318.111196 48.505873 319.257029 48.156915 C 322.793488 46.943373 326.35078 45.896498 329.939322 45.011081 C 333.527864 44.130873 337.132031 43.333998 340.751822 42.620456 C 343.590364 41.979831 346.392448 41.287123 349.147656 40.542331 C 351.91849 39.797539 354.689323 39.068373 357.465365 38.360039 C 357.829949 38.427748 358.19974 38.479831 358.579949 38.516289 C 358.98099 38.547539 359.319532 38.636081 359.595574 38.776706 L 361.309115 39.422539 C 361.585157 39.630873 361.866407 39.865248 362.142449 40.125664 C 362.434116 40.370456 362.720574 40.594414 363.001824 40.802748 C 363.361199 41.943373 363.616407 43.073581 363.751824 44.182956 C 363.892449 45.271498 363.855991 46.344415 363.647657 47.401707 L 358.319532 49.01629 C 357.178907 49.36004 355.98099 49.714207 354.736198 50.07879 C 353.501823 50.427748 352.283073 50.771498 351.069531 51.120457 C 350.79349 51.276707 350.585156 51.354832 350.444531 51.354832 C 349.095573 51.698582 347.507031 52.14129 345.689323 52.677749 C 343.887239 53.219415 342.074739 53.755874 340.257031 54.292332 C 338.454947 54.813165 336.913281 55.287124 335.63203 55.719415 C 334.366405 56.136082 333.585155 56.412124 333.293489 56.552749 C 331.595572 57.125665 329.887238 57.729832 328.173697 58.370457 C 326.47578 59.011082 324.809113 59.688166 323.178905 60.396499 L 322.97578 60.604832 C 323.043488 60.953791 323.126821 61.542332 323.230988 62.375666 C 323.335155 63.188166 323.439321 63.953791 323.543488 64.662124 C 323.668488 65.370458 323.72578 65.828791 323.72578 66.037124 C 326.704947 64.755874 329.668488 63.500666 332.616405 62.271499 C 335.559114 61.021499 338.559114 59.828791 341.611198 58.682957 C 343.309114 58.266291 345.022656 57.823582 346.757031 57.360041 C 348.507031 56.89129 350.23099 56.412124 351.928907 55.927749 L 353.303907 55.589207 C 353.944532 55.45379 354.569532 55.365249 355.173698 55.32879 C 355.783073 55.29754 356.408074 55.245457 357.048699 55.17254 C 358.397657 55.104832 359.673699 55.198582 360.866407 55.458999 C 362.079949 55.70379 363.043491 56.458999 363.751824 57.719416 C 363.892449 57.875666 363.980991 58.026707 364.012241 58.162124 C 364.048699 58.302749 364.100782 58.443374 364.168491 58.578791 C 364.309116 58.787124 364.413282 59.005874 364.480991 59.229832 C 364.548699 59.438166 364.626824 59.646499 364.715366 59.854832 C 364.783074 59.922541 364.855991 59.958999 364.923699 59.958999 C 365.908074 60.458999 366.507033 61.349624 366.715366 62.636083 C 366.939324 63.620458 366.788283 64.636083 366.246616 65.677749 C 365.710157 66.698583 364.949741 67.459 363.960157 67.964208 C 362.819532 68.448583 361.658074 68.750666 360.48099 68.870458 C 359.319532 68.974625 358.13724 69.167333 356.944532 69.443375 C 355.663282 69.651708 354.361198 69.886083 353.04349 70.1465 C 351.725782 70.386083 350.439323 70.682958 349.173698 71.031916 C 346.60599 71.74025 344.059114 72.511083 341.533073 73.344417 C 339.017447 74.156917 336.522656 75.094417 334.043489 76.151708 C 332.486197 76.792333 330.980989 77.464208 329.522655 78.17775 C 328.06953 78.886084 326.595572 79.630875 325.105988 80.412125 L 325.72578 87.323584 C 325.72578 87.396501 325.72578 87.448584 325.72578 87.479834 C 325.72578 87.516292 325.72578 87.604834 325.72578 87.740251 L 326.064322 87.531917 C 327.262238 86.964209 328.449738 86.448584 329.626822 86.000667 C 330.803905 85.531917 331.954947 85.057959 333.085155 84.568376 L 342.126823 81.037125 C 342.908073 80.688167 343.704948 80.375667 344.517448 80.099625 C 345.350781 79.807959 346.158073 79.5215 346.939323 79.24025 C 348.19974 78.74025 349.475781 78.266292 350.757031 77.813167 C 352.038282 77.344417 353.314323 76.8965 354.579948 76.464208 L 358.736199 75.188167 C 359.309115 75.047542 359.882032 74.860042 360.454949 74.61525 C 361.022657 74.354833 361.585157 74.156917 362.142449 74.016292 C 364.204949 73.584 365.892449 73.766292 367.210158 74.563167 C 368.527866 75.344417 369.574741 76.479833 370.355991 77.969417 C 371.137241 79.459 371.715366 81.089209 372.095575 82.854834 C 372.496616 84.620459 372.730991 86.250667 372.7987 87.740251 C 372.866408 88.677751 372.70495 89.516293 372.303908 90.261084 C 371.9237 91.005876 371.413283 91.625668 370.772658 92.110043 Z M 345.012239 69.547541 C 343.387239 70.05275 341.730989 70.55275 340.048697 71.057958 C 338.387239 71.542333 336.741406 72.068375 335.111197 72.641292 C 334.03828 72.917333 332.986197 73.219417 331.965364 73.55275 C 330.94453 73.860042 329.928905 74.156917 328.923697 74.432958 C 328.715363 75.6465 328.152863 76.641292 327.236197 77.422542 C 329.85078 76.073583 332.527864 74.86525 335.267447 73.807958 C 338.007031 72.735042 340.684114 71.672541 343.298698 70.61525 C 343.871614 70.334 344.475781 70.084 345.116406 69.860041 Z M 321.491405 106.375669 C 322.272655 106.448585 323.152863 106.46421 324.142446 106.427752 C 325.13203 106.396502 325.699738 106.344419 325.855988 106.271502 C 325.996613 106.271502 326.10078 106.240252 326.168488 106.167335 C 326.585155 105.96421 327.012238 105.74546 327.44453 105.521502 C 327.876822 105.313169 328.267447 105.104835 328.611197 104.896502 C 329.460155 104.46421 330.293488 104.037127 331.105989 103.62046 C 331.923697 103.188169 332.720572 102.766293 333.501822 102.349627 L 333.501822 102.115252 C 332.579947 102.479835 331.626822 102.844418 330.642447 103.209002 C 329.652863 103.552752 328.658072 103.90171 327.652863 104.24546 C 326.66328 104.610044 325.652863 104.985044 324.611196 105.365252 C 323.590363 105.761085 322.548696 106.099627 321.491405 106.375669 Z M 416.236202 68.792333 C 415.303911 70.511083 414.001827 71.776708 412.340369 72.589208 C 410.673702 73.401708 408.845577 73.880875 406.855993 74.016292 C 404.861202 74.156917 402.850785 74.120458 400.824743 73.912125 C 398.814326 73.709 396.996618 73.453792 395.366409 73.162125 C 394.866409 73.0215 394.376826 72.917333 393.913284 72.849625 C 393.460159 72.781917 392.986201 72.709 392.480993 72.641292 C 392.621618 73.281917 392.757034 73.922542 392.897659 74.563167 C 393.053909 75.188167 393.168493 75.787125 393.236201 76.360042 C 393.736201 78.99025 394.215368 81.625667 394.663284 84.261084 C 395.132034 86.875667 395.507034 89.490251 395.783076 92.110043 C 395.923701 93.391293 395.954951 94.688168 395.887243 96.005876 C 395.819534 97.323585 395.611201 98.578793 395.262243 99.77671 C 394.762243 101.55796 393.694534 103.198585 392.064326 104.688169 C 391.496617 105.172544 390.720576 105.573585 389.751826 105.886085 C 388.798701 106.21421 388.012242 105.990252 387.387242 105.209002 C 386.814326 104.427752 386.475784 103.563169 386.371617 102.610043 C 386.26745 101.656918 386.14245 100.709002 385.9862 99.77671 C 385.913284 99.136085 385.82995 98.485043 385.725784 97.828793 C 385.621617 97.15171 385.533075 96.459001 385.465367 95.74546 C 384.960159 94.031918 384.538284 92.219418 384.189325 90.313168 C 384.262242 90.886084 384.32995 91.443376 384.397659 91.979834 C 384.465367 92.500668 384.538284 93.042335 384.605992 93.615251 C 384.746617 94.531918 384.866409 95.453793 384.970575 96.37046 C 385.090367 97.287126 385.220575 98.21421 385.3612 99.15171 C 385.428909 99.860043 385.51745 100.58921 385.621617 101.334002 C 385.725784 102.078793 385.6737 102.771502 385.465367 103.412127 C 385.465367 103.485044 385.428909 103.485044 385.3612 103.412127 C 384.928909 102.771502 384.6737 102.011085 384.605992 101.125668 C 384.538284 100.224627 384.434117 99.422543 384.293492 98.709002 L 383.335159 93.172543 C 383.053909 91.339209 382.76745 89.516293 382.475784 87.714209 C 382.199742 85.896501 381.913284 84.057959 381.616408 82.203792 C 381.272658 80.005875 380.934117 77.813167 380.605992 75.630875 C 380.293492 73.42775 379.960158 71.229833 379.616408 69.026708 C 376.20495 67.67775 372.934116 66.188166 369.819533 64.557958 C 369.746616 64.469416 369.746616 64.391291 369.819533 64.323583 C 369.887241 64.255874 369.954949 64.255874 370.027866 64.323583 C 371.585158 65.031916 373.163283 65.729833 374.757033 66.401708 C 376.350783 67.078791 377.928908 67.703791 379.4862 68.276708 C 379.418492 67.912125 379.345575 67.589208 379.277867 67.313166 C 379.210158 67.037124 379.137242 66.750666 379.069533 66.453791 C 377.855992 65.969416 376.663283 65.458999 375.480991 64.922541 C 374.324741 64.386083 373.14245 63.865249 371.949741 63.360041 C 370.803908 62.807958 370.085158 61.854832 369.793491 60.500666 C 369.512241 59.151707 369.663283 57.979832 370.230991 56.995457 C 370.736199 56.214207 371.517449 55.573582 372.574741 55.068374 C 373.647658 54.568374 374.64245 54.500665 375.559116 54.865249 L 376.184116 55.17254 C 375.559116 52.833999 374.89245 50.495457 374.184116 48.156915 C 373.475783 45.818373 372.730991 43.511081 371.949741 41.245456 C 371.652866 40.307956 371.757033 39.469414 372.262241 38.724623 C 372.762241 37.979831 373.402866 37.464206 374.184116 37.188164 C 374.116408 36.688164 374.199741 36.261081 374.444533 35.917331 C 374.684116 35.552747 374.95495 35.229831 375.251825 34.953789 C 377.01745 33.740247 378.949742 33.333997 381.043492 33.729831 C 383.14245 34.115247 385.038284 34.729831 386.7362 35.578789 C 388.507034 36.511081 390.220576 37.490248 391.882034 38.516289 C 393.564326 39.537123 395.220576 40.583998 396.850784 41.656914 C 400.194535 43.86004 403.439327 46.224623 406.595577 48.755873 C 409.746619 51.26629 412.850786 53.865249 415.897661 56.552749 C 416.746619 57.261082 417.105994 58.083999 416.965369 59.021499 C 417.605994 60.078791 418.033078 61.136082 418.241411 62.193374 C 418.465369 63.682958 418.376828 64.964208 417.980994 66.037124 C 417.595578 67.094416 417.017452 68.016291 416.236202 68.792333 Z M 403.449743 57.412124 C 401.892451 56.490249 400.350785 55.589207 398.824743 54.708999 C 397.298701 53.807957 395.757034 52.932957 394.199743 52.083998 C 393.053909 51.526707 391.876826 50.948582 390.663284 50.339207 C 389.465367 49.73504 388.262242 49.177748 387.048701 48.677748 C 387.621617 50.667332 388.147659 52.698582 388.637242 54.761082 C 389.137242 56.802749 389.605992 58.854832 390.038284 60.917332 C 392.376826 61.698582 394.647659 62.339208 396.850784 62.844416 C 398.632035 63.188166 400.42891 63.458999 402.230993 63.646499 C 404.033077 63.823583 405.824743 63.839208 407.611202 63.698583 C 407.954952 63.698583 408.319535 63.682958 408.699744 63.646499 C 409.100785 63.615249 409.444535 63.563166 409.74141 63.490249 L 410.569535 63.255874 C 410.434119 62.979833 410.293494 62.771499 410.158077 62.636083 C 409.444535 61.490249 408.449744 60.511082 407.168494 59.698582 C 405.902868 58.880874 404.663285 58.120457 403.449743 57.412124 Z M 397.913285 71.67775 C 396.996618 71.542333 396.033076 71.386083 395.027868 71.209 C 394.043493 71.0215 393.053909 70.823583 392.064326 70.61525 C 392.137243 70.750666 392.168493 70.901708 392.168493 71.057958 C 392.168493 71.193375 392.204951 71.334 392.272659 71.469416 C 392.480993 71.542333 392.673701 71.594416 392.845576 71.625666 C 393.038284 71.662125 393.236201 71.67775 393.444534 71.67775 C 395.507034 71.959 397.621618 72.224625 399.783076 72.485042 C 401.949743 72.729833 404.059118 72.745458 406.100785 72.537125 L 410.158077 71.886083 C 410.158077 71.818375 409.783077 71.818375 409.038285 71.886083 C 408.293494 71.959 407.918494 71.959 407.918494 71.886083 C 406.152868 72.094416 404.376827 72.162125 402.590368 72.094416 C 400.824743 72.026708 399.267451 71.886083 397.913285 71.67775 Z M 392.585159 90.417334 C 392.725784 92.188168 392.777868 93.99546 392.741409 95.849626 C 392.704951 97.688168 392.267451 99.422543 391.418492 101.047543 L 391.621617 101.386085 C 392.059118 101.162127 392.413284 100.912127 392.689326 100.630877 C 393.470576 99.005877 393.809118 97.30796 393.704951 95.537126 C 393.600784 93.755876 393.371618 91.979834 393.027868 90.209001 L 392.376826 86.912126 C 392.309118 86.979834 392.309118 87.229834 392.376826 87.662126 C 392.444534 88.078793 392.444534 88.287126 392.376826 88.287126 Z M 392.585159 90.417334 " stroke="#100a09" stroke-width="8.51696" stroke-opacity="1" stroke-miterlimit="4"/><g fill="#b2d12e" fill-opacity="1"><g transform="translate(69.19396, 205.249499)"><g><path d="M 34.65625 0.234375 C 34.175781 0.554688 33.644531 0.554688 33.0625 0.234375 C 31.988281 -0.242188 31.265625 -1.023438 30.890625 -2.109375 C 30.523438 -3.203125 30.234375 -4.253906 30.015625 -5.265625 L 29.546875 -7.984375 L 15.65625 -32.8125 C 15.4375 -33.082031 15.21875 -33.375 15 -33.6875 C 14.789062 -34.007812 14.582031 -34.304688 14.375 -34.578125 C 14.425781 -31.859375 14.4375 -29.140625 14.40625 -26.421875 C 14.382812 -23.710938 14.375 -21 14.375 -18.28125 C 14.476562 -16.6875 14.539062 -15.085938 14.5625 -13.484375 C 14.59375 -11.890625 14.632812 -10.296875 14.6875 -8.703125 C 14.738281 -7.898438 14.789062 -6.925781 14.84375 -5.78125 C 14.90625 -4.644531 14.785156 -3.625 14.484375 -2.71875 C 14.191406 -1.8125 13.488281 -1.28125 12.375 -1.125 C 11.894531 -0.320312 11.242188 0.222656 10.421875 0.515625 C 9.597656 0.804688 8.734375 0.820312 7.828125 0.5625 C 6.972656 0.34375 6.226562 -0.160156 5.59375 -0.953125 C 5.375 -4.304688 5.195312 -7.660156 5.0625 -11.015625 C 4.9375 -14.367188 4.816406 -17.722656 4.703125 -21.078125 C 4.597656 -23.796875 4.519531 -26.523438 4.46875 -29.265625 C 4.414062 -32.003906 4.335938 -34.734375 4.234375 -37.453125 C 4.179688 -39.203125 4.140625 -40.953125 4.109375 -42.703125 C 4.085938 -44.460938 4.128906 -46.195312 4.234375 -47.90625 C 4.765625 -48.332031 5.269531 -48.570312 5.75 -48.625 C 5.75 -49.257812 5.960938 -49.875 6.390625 -50.46875 C 7.023438 -51.257812 7.738281 -51.640625 8.53125 -51.609375 C 9.332031 -51.585938 10.160156 -51.296875 11.015625 -50.734375 C 11.867188 -50.179688 12.640625 -49.546875 13.328125 -48.828125 C 14.023438 -48.109375 14.5625 -47.507812 14.9375 -47.03125 C 16.3125 -45.21875 17.570312 -43.363281 18.71875 -41.46875 C 19.863281 -39.582031 20.96875 -37.65625 22.03125 -35.6875 C 22.9375 -34.144531 23.816406 -32.570312 24.671875 -30.96875 C 25.523438 -29.375 26.347656 -27.753906 27.140625 -26.109375 C 27.253906 -25.898438 27.3125 -25.632812 27.3125 -25.3125 L 28.578125 -22.828125 C 28.367188 -24.859375 28.078125 -26.910156 27.703125 -28.984375 C 27.328125 -31.054688 26.957031 -33.101562 26.59375 -35.125 C 26.320312 -36.5625 26.050781 -38 25.78125 -39.4375 C 25.519531 -40.875 25.175781 -42.3125 24.75 -43.75 C 24.539062 -44.5 24.34375 -45.257812 24.15625 -46.03125 C 23.96875 -46.800781 24.085938 -47.585938 24.515625 -48.390625 C 24.890625 -49.023438 25.34375 -49.503906 25.875 -49.828125 C 25.875 -49.878906 25.882812 -49.90625 25.90625 -49.90625 C 25.9375 -49.90625 25.953125 -49.929688 25.953125 -49.984375 C 26.429688 -50.890625 27.160156 -51.34375 28.140625 -51.34375 C 29.128906 -51.34375 29.96875 -51.101562 30.65625 -50.625 C 30.820312 -50.570312 31.007812 -50.4375 31.21875 -50.21875 C 31.375 -49.476562 31.554688 -48.71875 31.765625 -47.9375 C 31.984375 -47.164062 32.203125 -46.410156 32.421875 -45.671875 C 33.054688 -43.378906 33.585938 -41.019531 34.015625 -38.59375 C 34.441406 -36.175781 34.84375 -33.769531 35.21875 -31.375 C 36.007812 -26.53125 36.644531 -21.632812 37.125 -16.6875 C 37.601562 -11.738281 38.003906 -6.816406 38.328125 -1.921875 C 37.898438 -1.328125 37.363281 -0.816406 36.71875 -0.390625 C 36.082031 0.0234375 35.394531 0.234375 34.65625 0.234375 Z M 39.125 -2.71875 C 39.019531 -2.71875 38.910156 -2.632812 38.796875 -2.46875 C 38.265625 -10.082031 37.535156 -17.679688 36.609375 -25.265625 C 35.679688 -32.847656 34.390625 -40.34375 32.734375 -47.75 C 32.628906 -48.0625 32.707031 -48.351562 32.96875 -48.625 C 33.1875 -48.894531 33.476562 -49.015625 33.84375 -48.984375 C 34.21875 -48.953125 34.4375 -48.726562 34.5 -48.3125 C 35.925781 -41.382812 37.050781 -34.394531 37.875 -27.34375 C 38.707031 -20.289062 39.097656 -13.222656 39.046875 -6.140625 C 39.097656 -5.878906 39.132812 -5.390625 39.15625 -4.671875 C 39.1875 -3.953125 39.175781 -3.300781 39.125 -2.71875 Z M 4.15625 -8.546875 C 3.9375 -11.367188 3.773438 -14.304688 3.671875 -17.359375 C 3.566406 -20.421875 3.460938 -23.390625 3.359375 -26.265625 C 3.242188 -29.085938 3.160156 -31.9375 3.109375 -34.8125 C 3.054688 -37.6875 3.003906 -40.5625 2.953125 -43.4375 C 2.898438 -44.125 2.925781 -44.828125 3.03125 -45.546875 C 3.132812 -46.265625 3.320312 -46.945312 3.59375 -47.59375 C 3.539062 -46.3125 3.523438 -45.03125 3.546875 -43.75 C 3.578125 -42.476562 3.617188 -41.203125 3.671875 -39.921875 C 3.722656 -37.148438 3.789062 -34.378906 3.875 -31.609375 C 3.957031 -28.847656 4.023438 -26.054688 4.078125 -23.234375 L 4.796875 -5.265625 C 4.796875 -5.265625 4.726562 -5.382812 4.59375 -5.625 C 4.457031 -5.863281 4.3125 -6.835938 4.15625 -8.546875 Z M 13.09375 -12.453125 L 12.859375 -12.21875 C 12.859375 -12.21875 12.84375 -12.21875 12.8125 -12.21875 C 12.789062 -12.21875 12.75 -12.191406 12.6875 -12.140625 L 12.609375 -7.34375 C 12.609375 -6.707031 12.726562 -5.945312 12.96875 -5.0625 C 13.207031 -4.1875 13.195312 -3.242188 12.9375 -2.234375 C 13.46875 -3.140625 13.679688 -4.046875 13.578125 -4.953125 C 13.523438 -5.691406 13.484375 -6.460938 13.453125 -7.265625 C 13.421875 -8.066406 13.351562 -8.863281 13.25 -9.65625 C 13.25 -10.132812 13.234375 -10.597656 13.203125 -11.046875 C 13.179688 -11.503906 13.144531 -11.972656 13.09375 -12.453125 Z M 13.09375 -12.453125 "/></g></g></g><g fill="#b2d12e" fill-opacity="1"><g transform="translate(106.4789, 205.249499)"><g><path d="M 29.21875 -2.390625 C 28.90625 -2.503906 28.546875 -3.066406 28.140625 -4.078125 C 27.742188 -5.085938 27.316406 -6.335938 26.859375 -7.828125 C 26.410156 -9.316406 25.984375 -10.859375 25.578125 -12.453125 C 25.179688 -14.046875 24.820312 -15.484375 24.5 -16.765625 C 24.1875 -18.046875 23.976562 -18.976562 23.875 -19.5625 L 17.640625 -19.484375 C 17.054688 -17.085938 16.550781 -14.703125 16.125 -12.328125 C 15.695312 -9.960938 15.378906 -7.554688 15.171875 -5.109375 C 15.171875 -4.628906 14.941406 -4.390625 14.484375 -4.390625 C 14.035156 -4.390625 13.835938 -4.628906 13.890625 -5.109375 C 14.109375 -7.503906 14.414062 -9.910156 14.8125 -12.328125 C 15.207031 -14.753906 15.78125 -17.140625 16.53125 -19.484375 L 15.8125 -19.484375 C 15.539062 -18.523438 15.269531 -17.363281 15 -16 C 14.738281 -14.644531 14.488281 -13.316406 14.25 -12.015625 C 14.007812 -10.710938 13.804688 -9.617188 13.640625 -8.734375 C 13.484375 -7.859375 13.40625 -7.421875 13.40625 -7.421875 L 12.9375 -3.828125 C 12.769531 -2.023438 12.15625 -0.722656 11.09375 0.078125 C 10.03125 0.878906 8.859375 1.195312 7.578125 1.03125 C 6.304688 0.875 5.226562 0.265625 4.34375 -0.796875 C 3.46875 -1.859375 3.164062 -3.320312 3.4375 -5.1875 C 3.75 -7.53125 4.117188 -9.875 4.546875 -12.21875 C 4.972656 -14.5625 5.476562 -16.875 6.0625 -19.15625 C 5.695312 -19.101562 5.328125 -19.0625 4.953125 -19.03125 C 4.578125 -19.007812 4.226562 -19 3.90625 -19 C 4.019531 -19.269531 4.050781 -19.507812 4 -19.71875 C 2.71875 -20.039062 1.78125 -20.734375 1.1875 -21.796875 C 0.601562 -22.859375 0.445312 -24.039062 0.71875 -25.34375 C 0.988281 -26.65625 1.734375 -27.851562 2.953125 -28.9375 C 4.179688 -30.03125 5.992188 -30.765625 8.390625 -31.140625 C 8.972656 -33.796875 9.609375 -36.414062 10.296875 -39 C 10.992188 -41.582031 11.847656 -44.097656 12.859375 -46.546875 C 13.335938 -47.609375 13.867188 -48.765625 14.453125 -50.015625 C 15.035156 -51.273438 15.765625 -52.367188 16.640625 -53.296875 C 17.523438 -54.222656 18.632812 -54.6875 19.96875 -54.6875 C 20.65625 -54.738281 21.34375 -54.550781 22.03125 -54.125 C 22.726562 -53.707031 23.234375 -53.175781 23.546875 -52.53125 C 24.722656 -52.476562 25.695312 -52.066406 26.46875 -51.296875 C 27.238281 -50.523438 27.675781 -49.5 27.78125 -48.21875 C 27.894531 -46.625 28.03125 -45.015625 28.1875 -43.390625 C 28.34375 -41.765625 28.5 -40.179688 28.65625 -38.640625 C 28.71875 -38.585938 28.773438 -38.5625 28.828125 -38.5625 C 28.878906 -39.945312 28.941406 -41.316406 29.015625 -42.671875 C 29.097656 -44.035156 29.21875 -45.378906 29.375 -46.703125 C 29.375 -46.921875 29.414062 -46.441406 29.5 -45.265625 C 29.582031 -44.097656 29.675781 -42.59375 29.78125 -40.75 C 29.882812 -38.914062 29.988281 -37.082031 30.09375 -35.25 C 30.207031 -33.414062 30.34375 -31.882812 30.5 -30.65625 C 32.039062 -30.5 33.238281 -29.976562 34.09375 -29.09375 C 34.945312 -28.21875 35.476562 -27.207031 35.6875 -26.0625 C 35.90625 -24.925781 35.800781 -23.796875 35.375 -22.671875 C 34.945312 -21.554688 34.175781 -20.65625 33.0625 -19.96875 C 33.59375 -17.625 34.148438 -14.972656 34.734375 -12.015625 C 35.316406 -9.054688 35.769531 -6.382812 36.09375 -4 C 36.300781 -2.1875 36.148438 -0.816406 35.640625 0.109375 C 35.140625 1.046875 34.476562 1.566406 33.65625 1.671875 C 32.832031 1.785156 32.003906 1.492188 31.171875 0.796875 C 30.347656 0.109375 29.695312 -0.953125 29.21875 -2.390625 Z M 17.40625 -29.859375 C 17.988281 -29.960938 18.742188 -30.023438 19.671875 -30.046875 C 20.609375 -30.078125 21.34375 -30.125 21.875 -30.1875 C 21.769531 -30.875 21.648438 -31.851562 21.515625 -33.125 C 21.378906 -34.40625 21.21875 -35.773438 21.03125 -37.234375 C 20.851562 -38.703125 20.628906 -40.050781 20.359375 -41.28125 C 19.722656 -39.039062 19.164062 -37.039062 18.6875 -35.28125 C 18.207031 -33.53125 17.78125 -31.722656 17.40625 -29.859375 Z M 17.40625 -29.859375 "/></g></g></g><g fill="#b2d12e" fill-opacity="1"><g transform="translate(140.490407, 205.249499)"><g><path d="M 36.40625 -43.28125 C 36.40625 -41.570312 36.3125 -39.878906 36.125 -38.203125 C 35.9375 -36.523438 35.6875 -34.835938 35.375 -33.140625 C 35.050781 -31.535156 34.6875 -29.910156 34.28125 -28.265625 C 33.882812 -26.617188 33.394531 -25.019531 32.8125 -23.46875 C 32.226562 -21.976562 31.601562 -20.472656 30.9375 -18.953125 C 30.269531 -17.441406 29.617188 -15.941406 28.984375 -14.453125 C 28.878906 -14.234375 28.828125 -14.097656 28.828125 -14.046875 C 28.660156 -13.785156 28.5 -13.507812 28.34375 -13.21875 C 28.1875 -12.925781 28.054688 -12.644531 27.953125 -12.375 C 27.253906 -11.15625 26.5625 -10.007812 25.875 -8.9375 C 25.445312 -8.300781 24.738281 -7.4375 23.75 -6.34375 C 22.769531 -5.25 21.640625 -4.171875 20.359375 -3.109375 C 19.078125 -2.046875 17.796875 -1.191406 16.515625 -0.546875 C 15.242188 0.0859375 14.078125 0.269531 13.015625 0 C 11.953125 -0.269531 11.128906 -1.203125 10.546875 -2.796875 C 10.378906 -3.222656 10.226562 -3.660156 10.09375 -4.109375 C 9.96875 -4.566406 9.847656 -5.003906 9.734375 -5.421875 C 8.566406 -5.847656 7.984375 -6.726562 7.984375 -8.0625 C 8.035156 -8.8125 8.046875 -9.582031 8.015625 -10.375 C 7.992188 -11.175781 7.929688 -11.976562 7.828125 -12.78125 C 7.828125 -12.9375 7.800781 -13.039062 7.75 -13.09375 C 7.695312 -13.363281 7.671875 -13.601562 7.671875 -13.8125 C 7.671875 -14.019531 7.671875 -14.234375 7.671875 -14.453125 C 7.609375 -15.035156 7.535156 -15.59375 7.453125 -16.125 C 7.378906 -16.65625 7.316406 -17.1875 7.265625 -17.71875 C 6.890625 -20.757812 6.410156 -23.796875 5.828125 -26.828125 C 5.554688 -28.367188 5.273438 -29.910156 4.984375 -31.453125 C 4.691406 -33.003906 4.390625 -34.523438 4.078125 -36.015625 C 3.753906 -37.554688 3.40625 -39.082031 3.03125 -40.59375 C 2.65625 -42.113281 2.363281 -43.617188 2.15625 -45.109375 C 2.101562 -45.265625 2.15625 -45.367188 2.3125 -45.421875 C 2.476562 -45.484375 2.585938 -45.457031 2.640625 -45.34375 L 3.359375 -43.828125 C 3.140625 -44.472656 2.894531 -45.3125 2.625 -46.34375 C 2.363281 -47.382812 2.234375 -48.421875 2.234375 -49.453125 C 2.234375 -50.492188 2.484375 -51.359375 2.984375 -52.046875 C 3.492188 -52.742188 4.363281 -53.039062 5.59375 -52.9375 C 7.5625 -52.78125 9.085938 -51.953125 10.171875 -50.453125 C 11.265625 -48.960938 12.050781 -47.367188 12.53125 -45.671875 C 13.113281 -43.546875 13.644531 -41.40625 14.125 -39.25 C 14.601562 -37.09375 15.03125 -34.921875 15.40625 -32.734375 C 15.570312 -31.992188 15.800781 -30.8125 16.09375 -29.1875 C 16.382812 -27.5625 16.6875 -25.828125 17 -23.984375 C 17.320312 -22.148438 17.613281 -20.523438 17.875 -19.109375 C 18.144531 -17.703125 18.304688 -16.867188 18.359375 -16.609375 C 19.265625 -19.003906 20.078125 -21.4375 20.796875 -23.90625 C 21.515625 -26.382812 22.140625 -28.875 22.671875 -31.375 C 23.367188 -35 23.875 -38.660156 24.1875 -42.359375 C 24.507812 -46.054688 24.617188 -49.742188 24.515625 -53.421875 C 24.515625 -53.953125 24.765625 -54.21875 25.265625 -54.21875 C 25.773438 -54.21875 26.054688 -53.953125 26.109375 -53.421875 C 26.378906 -46.867188 25.925781 -40.28125 24.75 -33.65625 C 23.582031 -27.03125 21.585938 -20.707031 18.765625 -14.6875 C 18.816406 -14.632812 18.851562 -14.5 18.875 -14.28125 C 18.90625 -14.070312 18.921875 -13.914062 18.921875 -13.8125 C 21.316406 -18.332031 23.097656 -22.800781 24.265625 -27.21875 C 25.441406 -31.644531 26.210938 -36.050781 26.578125 -40.4375 C 26.953125 -44.832031 27.113281 -49.238281 27.0625 -53.65625 C 28.875 -54.03125 30.578125 -53.765625 32.171875 -52.859375 C 32.816406 -53.335938 33.484375 -53.285156 34.171875 -52.703125 C 34.753906 -52.171875 35.148438 -51.488281 35.359375 -50.65625 C 35.578125 -49.832031 35.796875 -49.050781 36.015625 -48.3125 C 36.222656 -47.5625 36.351562 -46.734375 36.40625 -45.828125 C 36.457031 -44.921875 36.457031 -44.070312 36.40625 -43.28125 Z M 36.40625 -43.28125 "/></g></g></g><g fill="#b2d12e" fill-opacity="1"><g transform="translate(174.581748, 205.249499)"><g><path d="M 45.984375 -7.265625 C 45.242188 -5.503906 43.976562 -4.066406 42.1875 -2.953125 C 40.40625 -1.835938 38.613281 -1.066406 36.8125 -0.640625 C 34.726562 -0.160156 32.648438 0.0625 30.578125 0.03125 C 28.503906 0.0078125 26.398438 -0.160156 24.265625 -0.484375 C 22.191406 -0.796875 20.222656 -1.191406 18.359375 -1.671875 C 17.992188 -0.878906 17.488281 -0.398438 16.84375 -0.234375 C 16.46875 -0.179688 16.097656 -0.238281 15.734375 -0.40625 C 15.359375 -0.03125 14.929688 0.15625 14.453125 0.15625 C 13.921875 0.207031 13.398438 0.179688 12.890625 0.078125 C 12.390625 -0.0234375 11.925781 -0.210938 11.5 -0.484375 C 10.644531 -1.066406 10.03125 -1.703125 9.65625 -2.390625 C 9.289062 -3.085938 9 -3.914062 8.78125 -4.875 C 7.5 -5.40625 6.234375 -5.945312 4.984375 -6.5 C 3.734375 -7.0625 2.5 -7.660156 1.28125 -8.296875 C 0.101562 -8.941406 -0.640625 -9.925781 -0.953125 -11.25 C -1.273438 -12.582031 -1.09375 -13.8125 -0.40625 -14.9375 C 0.238281 -16.050781 1.210938 -16.78125 2.515625 -17.125 C 3.816406 -17.46875 5.023438 -17.320312 6.140625 -16.6875 L 6.46875 -16.453125 C 6.414062 -16.929688 6.332031 -17.394531 6.21875 -17.84375 C 6.113281 -18.300781 6.007812 -18.769531 5.90625 -19.25 C 5.050781 -23.71875 4.160156 -28.171875 3.234375 -32.609375 C 2.304688 -37.054688 1.390625 -41.488281 0.484375 -45.90625 C 0.429688 -46.070312 0.375 -46.234375 0.3125 -46.390625 C 0.257812 -46.546875 0.207031 -46.675781 0.15625 -46.78125 C -0.0507812 -47.582031 0.0820312 -48.289062 0.5625 -48.90625 C 1.039062 -49.519531 1.625 -49.878906 2.3125 -49.984375 C 2.53125 -50.035156 2.726562 -50.070312 2.90625 -50.09375 C 3.09375 -50.125 3.269531 -50.140625 3.4375 -50.140625 C 3.695312 -50.835938 4.195312 -51.382812 4.9375 -51.78125 C 5.6875 -52.175781 6.515625 -52.441406 7.421875 -52.578125 C 8.328125 -52.710938 9.070312 -52.753906 9.65625 -52.703125 C 12.320312 -52.484375 14.675781 -51.628906 16.71875 -50.140625 C 18.769531 -48.648438 20.726562 -47 22.59375 -45.1875 C 24.664062 -43.21875 26.726562 -41.195312 28.78125 -39.125 C 30.832031 -37.050781 32.816406 -34.921875 34.734375 -32.734375 C 35.421875 -32.046875 36.097656 -31.3125 36.765625 -30.53125 C 37.429688 -29.757812 38.054688 -28.976562 38.640625 -28.1875 C 39.648438 -26.851562 40.617188 -25.492188 41.546875 -24.109375 C 42.484375 -22.722656 43.328125 -21.257812 44.078125 -19.71875 C 45.035156 -17.851562 45.816406 -15.828125 46.421875 -13.640625 C 47.035156 -11.460938 46.890625 -9.335938 45.984375 -7.265625 Z M 2.953125 -40.078125 C 2.898438 -40.242188 2.738281 -40.5 2.46875 -40.84375 C 2.207031 -41.1875 2.128906 -41.066406 2.234375 -40.484375 C 2.929688 -37.710938 3.582031 -34.957031 4.1875 -32.21875 C 4.800781 -29.476562 5.453125 -26.722656 6.140625 -23.953125 L 8.296875 -15.40625 C 8.566406 -15.300781 8.820312 -15.164062 9.0625 -15 C 9.300781 -14.84375 9.523438 -14.710938 9.734375 -14.609375 C 9.523438 -15.304688 9.300781 -15.984375 9.0625 -16.640625 C 8.820312 -17.304688 8.625 -17.988281 8.46875 -18.6875 C 8.25 -19.425781 7.953125 -20.523438 7.578125 -21.984375 C 7.210938 -23.453125 6.816406 -25.078125 6.390625 -26.859375 C 5.960938 -28.648438 5.519531 -30.421875 5.0625 -32.171875 C 4.613281 -33.929688 4.203125 -35.515625 3.828125 -36.921875 C 3.460938 -38.335938 3.171875 -39.390625 2.953125 -40.078125 Z M 36.8125 -15.734375 C 36.226562 -16.640625 35.628906 -17.554688 35.015625 -18.484375 C 34.398438 -19.410156 33.773438 -20.300781 33.140625 -21.15625 C 31.960938 -22.75 30.695312 -24.289062 29.34375 -25.78125 C 27.988281 -27.28125 26.535156 -28.691406 24.984375 -30.015625 C 22.054688 -32.734375 18.734375 -35.15625 15.015625 -37.28125 L 13.5 -38.078125 C 14.1875 -34.785156 14.835938 -31.460938 15.453125 -28.109375 C 16.066406 -24.753906 16.640625 -21.425781 17.171875 -18.125 C 17.378906 -16.957031 17.585938 -15.773438 17.796875 -14.578125 C 18.015625 -13.378906 18.226562 -12.164062 18.4375 -10.9375 C 19.664062 -10.507812 20.914062 -10.097656 22.1875 -9.703125 C 23.46875 -9.304688 24.773438 -8.972656 26.109375 -8.703125 C 27.171875 -8.492188 28.046875 -8.332031 28.734375 -8.21875 C 29.429688 -8.113281 30.285156 -8.035156 31.296875 -7.984375 C 32.253906 -7.984375 33.078125 -8.007812 33.765625 -8.0625 C 34.460938 -8.113281 35.238281 -8.25 36.09375 -8.46875 C 36.78125 -8.625 37.398438 -8.820312 37.953125 -9.0625 C 38.515625 -9.300781 39.007812 -9.609375 39.4375 -9.984375 C 39.382812 -10.515625 39.25 -11.003906 39.03125 -11.453125 C 38.820312 -11.910156 38.585938 -12.378906 38.328125 -12.859375 C 38.109375 -13.335938 37.863281 -13.828125 37.59375 -14.328125 C 37.332031 -14.835938 37.070312 -15.304688 36.8125 -15.734375 Z M 36.8125 -15.734375 "/></g></g></g><g fill="#b2d12e" fill-opacity="1"><g transform="translate(217.056275, 205.249499)"><g><path d="M 1.84375 -42.15625 C 4.5 -43.539062 7.265625 -44.710938 10.140625 -45.671875 C 13.015625 -46.628906 15.890625 -47.476562 18.765625 -48.21875 L 20.59375 -48.703125 C 22.25 -49.023438 23.898438 -49.332031 25.546875 -49.625 C 27.203125 -49.914062 28.878906 -50.113281 30.578125 -50.21875 C 30.953125 -50.269531 31.3125 -50.296875 31.65625 -50.296875 C 32 -50.296875 32.359375 -50.296875 32.734375 -50.296875 C 31.191406 -49.929688 29.617188 -49.546875 28.015625 -49.140625 C 26.421875 -48.742188 24.851562 -48.359375 23.3125 -47.984375 C 20.601562 -47.398438 17.898438 -46.773438 15.203125 -46.109375 C 12.515625 -45.441406 9.84375 -44.65625 7.1875 -43.75 C 6.28125 -43.488281 5.382812 -43.179688 4.5 -42.828125 C 3.625 -42.484375 2.738281 -42.097656 1.84375 -41.671875 C 1.625 -41.785156 1.625 -41.945312 1.84375 -42.15625 Z M 46.625 -9.65625 C 46.519531 -9.175781 46.253906 -8.910156 45.828125 -8.859375 C 42.898438 -8.328125 39.957031 -7.675781 37 -6.90625 C 34.050781 -6.132812 31.164062 -5.242188 28.34375 -4.234375 C 27.007812 -3.753906 25.664062 -3.273438 24.3125 -2.796875 C 22.957031 -2.316406 21.613281 -1.785156 20.28125 -1.203125 L 20.203125 -1.203125 C 20.148438 -1.148438 20.066406 -1.109375 19.953125 -1.078125 C 19.847656 -1.046875 19.742188 -1.003906 19.640625 -0.953125 C 19.210938 -0.742188 18.769531 -0.554688 18.3125 -0.390625 C 17.863281 -0.234375 17.425781 -0.0507812 17 0.15625 L 16.921875 0.234375 C 16.609375 0.453125 16.007812 0.71875 15.125 1.03125 C 14.25 1.351562 13.425781 1.617188 12.65625 1.828125 C 11.882812 2.046875 11.5 2.15625 11.5 2.15625 C 11.5 2.15625 11.40625 2.164062 11.21875 2.1875 C 11.03125 2.21875 10.859375 2.234375 10.703125 2.234375 C 10.054688 2.335938 9.414062 2.335938 8.78125 2.234375 C 8.144531 2.128906 7.664062 1.726562 7.34375 1.03125 C 7.1875 0.71875 7.160156 0.347656 7.265625 -0.078125 C 6.253906 -0.503906 5.46875 -1.234375 4.90625 -2.265625 C 4.351562 -3.304688 4.257812 -4.332031 4.625 -5.34375 C 4.414062 -6.726562 4.242188 -8.125 4.109375 -9.53125 C 3.972656 -10.945312 3.851562 -12.347656 3.75 -13.734375 L 2.796875 -23.3125 L 1.84375 -32.421875 C 0.820312 -33.535156 0.394531 -34.835938 0.5625 -36.328125 C 0.71875 -37.816406 1.382812 -39.066406 2.5625 -40.078125 C 2.613281 -40.179688 2.664062 -40.285156 2.71875 -40.390625 C 2.769531 -40.503906 2.820312 -40.613281 2.875 -40.71875 C 3.726562 -41.09375 4.578125 -41.4375 5.421875 -41.75 C 6.273438 -42.070312 7.128906 -42.367188 7.984375 -42.640625 C 10.648438 -43.546875 13.328125 -44.328125 16.015625 -44.984375 C 18.703125 -45.648438 21.398438 -46.25 24.109375 -46.78125 C 26.242188 -47.257812 28.347656 -47.78125 30.421875 -48.34375 C 32.492188 -48.90625 34.566406 -49.453125 36.640625 -49.984375 C 36.910156 -49.929688 37.191406 -49.890625 37.484375 -49.859375 C 37.773438 -49.835938 38.03125 -49.769531 38.25 -49.65625 L 39.515625 -49.1875 C 39.734375 -49.019531 39.945312 -48.84375 40.15625 -48.65625 C 40.375 -48.476562 40.585938 -48.304688 40.796875 -48.140625 C 41.066406 -47.296875 41.253906 -46.457031 41.359375 -45.625 C 41.460938 -44.800781 41.4375 -43.992188 41.28125 -43.203125 L 37.28125 -42 C 36.4375 -41.726562 35.546875 -41.457031 34.609375 -41.1875 C 33.679688 -40.925781 32.765625 -40.664062 31.859375 -40.40625 C 31.640625 -40.289062 31.476562 -40.234375 31.375 -40.234375 C 30.363281 -39.972656 29.179688 -39.640625 27.828125 -39.234375 C 26.472656 -38.835938 25.113281 -38.441406 23.75 -38.046875 C 22.394531 -37.648438 21.238281 -37.289062 20.28125 -36.96875 C 19.320312 -36.644531 18.738281 -36.429688 18.53125 -36.328125 C 17.25 -35.898438 15.96875 -35.445312 14.6875 -34.96875 C 13.414062 -34.488281 12.164062 -33.984375 10.9375 -33.453125 L 10.78125 -33.296875 C 10.832031 -33.023438 10.894531 -32.582031 10.96875 -31.96875 C 11.050781 -31.363281 11.132812 -30.796875 11.21875 -30.265625 C 11.300781 -29.734375 11.34375 -29.382812 11.34375 -29.21875 C 13.570312 -30.175781 15.789062 -31.117188 18 -32.046875 C 20.207031 -32.984375 22.457031 -33.878906 24.75 -34.734375 C 26.03125 -35.054688 27.320312 -35.390625 28.625 -35.734375 C 29.925781 -36.078125 31.21875 -36.4375 32.5 -36.8125 L 33.53125 -37.046875 C 34.007812 -37.148438 34.472656 -37.210938 34.921875 -37.234375 C 35.378906 -37.265625 35.847656 -37.304688 36.328125 -37.359375 C 37.335938 -37.421875 38.296875 -37.359375 39.203125 -37.171875 C 40.109375 -36.984375 40.828125 -36.410156 41.359375 -35.453125 C 41.460938 -35.347656 41.523438 -35.238281 41.546875 -35.125 C 41.578125 -35.019531 41.617188 -34.914062 41.671875 -34.8125 C 41.785156 -34.65625 41.867188 -34.492188 41.921875 -34.328125 C 41.972656 -34.171875 42.023438 -34.015625 42.078125 -33.859375 C 42.128906 -33.804688 42.179688 -33.78125 42.234375 -33.78125 C 42.984375 -33.40625 43.4375 -32.738281 43.59375 -31.78125 C 43.75 -31.03125 43.628906 -30.269531 43.234375 -29.5 C 42.835938 -28.726562 42.265625 -28.15625 41.515625 -27.78125 C 40.660156 -27.414062 39.796875 -27.191406 38.921875 -27.109375 C 38.046875 -27.023438 37.15625 -26.878906 36.25 -26.671875 C 35.289062 -26.503906 34.316406 -26.328125 33.328125 -26.140625 C 32.347656 -25.960938 31.378906 -25.738281 30.421875 -25.46875 C 28.503906 -24.9375 26.597656 -24.363281 24.703125 -23.75 C 22.816406 -23.132812 20.941406 -22.429688 19.078125 -21.640625 C 17.910156 -21.160156 16.78125 -20.65625 15.6875 -20.125 C 14.59375 -19.59375 13.488281 -19.03125 12.375 -18.4375 L 12.859375 -13.25 C 12.859375 -13.195312 12.859375 -13.15625 12.859375 -13.125 C 12.859375 -13.101562 12.859375 -13.039062 12.859375 -12.9375 L 13.09375 -13.09375 C 14 -13.519531 14.890625 -13.90625 15.765625 -14.25 C 16.648438 -14.59375 17.515625 -14.953125 18.359375 -15.328125 L 25.15625 -17.96875 C 25.738281 -18.226562 26.332031 -18.460938 26.9375 -18.671875 C 27.550781 -18.890625 28.15625 -19.109375 28.75 -19.328125 C 29.707031 -19.691406 30.664062 -20.046875 31.625 -20.390625 C 32.582031 -20.742188 33.539062 -21.078125 34.5 -21.390625 L 37.609375 -22.359375 C 38.035156 -22.460938 38.457031 -22.609375 38.875 -22.796875 C 39.300781 -22.984375 39.726562 -23.128906 40.15625 -23.234375 C 41.707031 -23.554688 42.972656 -23.421875 43.953125 -22.828125 C 44.941406 -22.242188 45.726562 -21.394531 46.3125 -20.28125 C 46.894531 -19.164062 47.332031 -17.941406 47.625 -16.609375 C 47.914062 -15.273438 48.085938 -14.050781 48.140625 -12.9375 C 48.191406 -12.238281 48.070312 -11.609375 47.78125 -11.046875 C 47.488281 -10.492188 47.101562 -10.03125 46.625 -9.65625 Z M 27.3125 -26.59375 C 26.082031 -26.21875 24.84375 -25.84375 23.59375 -25.46875 C 22.34375 -25.09375 21.101562 -24.691406 19.875 -24.265625 C 19.082031 -24.054688 18.300781 -23.832031 17.53125 -23.59375 C 16.757812 -23.351562 16 -23.128906 15.25 -22.921875 C 15.09375 -22.015625 14.664062 -21.265625 13.96875 -20.671875 C 15.9375 -21.691406 17.945312 -22.597656 20 -23.390625 C 22.050781 -24.191406 24.0625 -24.992188 26.03125 -25.796875 C 26.457031 -26.003906 26.910156 -26.1875 27.390625 -26.34375 Z M 9.65625 1.03125 C 10.25 1.09375 10.914062 1.109375 11.65625 1.078125 C 12.40625 1.046875 12.832031 1.003906 12.9375 0.953125 C 13.039062 0.953125 13.117188 0.925781 13.171875 0.875 C 13.492188 0.71875 13.8125 0.554688 14.125 0.390625 C 14.445312 0.234375 14.742188 0.078125 15.015625 -0.078125 C 15.648438 -0.398438 16.273438 -0.71875 16.890625 -1.03125 C 17.503906 -1.351562 18.101562 -1.675781 18.6875 -2 L 18.6875 -2.15625 C 17.988281 -1.882812 17.265625 -1.613281 16.515625 -1.34375 C 15.773438 -1.082031 15.035156 -0.820312 14.296875 -0.5625 C 13.546875 -0.289062 12.785156 -0.0078125 12.015625 0.28125 C 11.242188 0.570312 10.457031 0.820312 9.65625 1.03125 Z M 9.65625 1.03125 "/></g></g></g><g fill="#b2d12e" fill-opacity="1"><g transform="translate(261.526788, 205.249499)"><g><path d="M 1.84375 -42.15625 C 4.5 -43.539062 7.265625 -44.710938 10.140625 -45.671875 C 13.015625 -46.628906 15.890625 -47.476562 18.765625 -48.21875 L 20.59375 -48.703125 C 22.25 -49.023438 23.898438 -49.332031 25.546875 -49.625 C 27.203125 -49.914062 28.878906 -50.113281 30.578125 -50.21875 C 30.953125 -50.269531 31.3125 -50.296875 31.65625 -50.296875 C 32 -50.296875 32.359375 -50.296875 32.734375 -50.296875 C 31.191406 -49.929688 29.617188 -49.546875 28.015625 -49.140625 C 26.421875 -48.742188 24.851562 -48.359375 23.3125 -47.984375 C 20.601562 -47.398438 17.898438 -46.773438 15.203125 -46.109375 C 12.515625 -45.441406 9.84375 -44.65625 7.1875 -43.75 C 6.28125 -43.488281 5.382812 -43.179688 4.5 -42.828125 C 3.625 -42.484375 2.738281 -42.097656 1.84375 -41.671875 C 1.625 -41.785156 1.625 -41.945312 1.84375 -42.15625 Z M 46.625 -9.65625 C 46.519531 -9.175781 46.253906 -8.910156 45.828125 -8.859375 C 42.898438 -8.328125 39.957031 -7.675781 37 -6.90625 C 34.050781 -6.132812 31.164062 -5.242188 28.34375 -4.234375 C 27.007812 -3.753906 25.664062 -3.273438 24.3125 -2.796875 C 22.957031 -2.316406 21.613281 -1.785156 20.28125 -1.203125 L 20.203125 -1.203125 C 20.148438 -1.148438 20.066406 -1.109375 19.953125 -1.078125 C 19.847656 -1.046875 19.742188 -1.003906 19.640625 -0.953125 C 19.210938 -0.742188 18.769531 -0.554688 18.3125 -0.390625 C 17.863281 -0.234375 17.425781 -0.0507812 17 0.15625 L 16.921875 0.234375 C 16.609375 0.453125 16.007812 0.71875 15.125 1.03125 C 14.25 1.351562 13.425781 1.617188 12.65625 1.828125 C 11.882812 2.046875 11.5 2.15625 11.5 2.15625 C 11.5 2.15625 11.40625 2.164062 11.21875 2.1875 C 11.03125 2.21875 10.859375 2.234375 10.703125 2.234375 C 10.054688 2.335938 9.414062 2.335938 8.78125 2.234375 C 8.144531 2.128906 7.664062 1.726562 7.34375 1.03125 C 7.1875 0.71875 7.160156 0.347656 7.265625 -0.078125 C 6.253906 -0.503906 5.46875 -1.234375 4.90625 -2.265625 C 4.351562 -3.304688 4.257812 -4.332031 4.625 -5.34375 C 4.414062 -6.726562 4.242188 -8.125 4.109375 -9.53125 C 3.972656 -10.945312 3.851562 -12.347656 3.75 -13.734375 L 2.796875 -23.3125 L 1.84375 -32.421875 C 0.820312 -33.535156 0.394531 -34.835938 0.5625 -36.328125 C 0.71875 -37.816406 1.382812 -39.066406 2.5625 -40.078125 C 2.613281 -40.179688 2.664062 -40.285156 2.71875 -40.390625 C 2.769531 -40.503906 2.820312 -40.613281 2.875 -40.71875 C 3.726562 -41.09375 4.578125 -41.4375 5.421875 -41.75 C 6.273438 -42.070312 7.128906 -42.367188 7.984375 -42.640625 C 10.648438 -43.546875 13.328125 -44.328125 16.015625 -44.984375 C 18.703125 -45.648438 21.398438 -46.25 24.109375 -46.78125 C 26.242188 -47.257812 28.347656 -47.78125 30.421875 -48.34375 C 32.492188 -48.90625 34.566406 -49.453125 36.640625 -49.984375 C 36.910156 -49.929688 37.191406 -49.890625 37.484375 -49.859375 C 37.773438 -49.835938 38.03125 -49.769531 38.25 -49.65625 L 39.515625 -49.1875 C 39.734375 -49.019531 39.945312 -48.84375 40.15625 -48.65625 C 40.375 -48.476562 40.585938 -48.304688 40.796875 -48.140625 C 41.066406 -47.296875 41.253906 -46.457031 41.359375 -45.625 C 41.460938 -44.800781 41.4375 -43.992188 41.28125 -43.203125 L 37.28125 -42 C 36.4375 -41.726562 35.546875 -41.457031 34.609375 -41.1875 C 33.679688 -40.925781 32.765625 -40.664062 31.859375 -40.40625 C 31.640625 -40.289062 31.476562 -40.234375 31.375 -40.234375 C 30.363281 -39.972656 29.179688 -39.640625 27.828125 -39.234375 C 26.472656 -38.835938 25.113281 -38.441406 23.75 -38.046875 C 22.394531 -37.648438 21.238281 -37.289062 20.28125 -36.96875 C 19.320312 -36.644531 18.738281 -36.429688 18.53125 -36.328125 C 17.25 -35.898438 15.96875 -35.445312 14.6875 -34.96875 C 13.414062 -34.488281 12.164062 -33.984375 10.9375 -33.453125 L 10.78125 -33.296875 C 10.832031 -33.023438 10.894531 -32.582031 10.96875 -31.96875 C 11.050781 -31.363281 11.132812 -30.796875 11.21875 -30.265625 C 11.300781 -29.734375 11.34375 -29.382812 11.34375 -29.21875 C 13.570312 -30.175781 15.789062 -31.117188 18 -32.046875 C 20.207031 -32.984375 22.457031 -33.878906 24.75 -34.734375 C 26.03125 -35.054688 27.320312 -35.390625 28.625 -35.734375 C 29.925781 -36.078125 31.21875 -36.4375 32.5 -36.8125 L 33.53125 -37.046875 C 34.007812 -37.148438 34.472656 -37.210938 34.921875 -37.234375 C 35.378906 -37.265625 35.847656 -37.304688 36.328125 -37.359375 C 37.335938 -37.421875 38.296875 -37.359375 39.203125 -37.171875 C 40.109375 -36.984375 40.828125 -36.410156 41.359375 -35.453125 C 41.460938 -35.347656 41.523438 -35.238281 41.546875 -35.125 C 41.578125 -35.019531 41.617188 -34.914062 41.671875 -34.8125 C 41.785156 -34.65625 41.867188 -34.492188 41.921875 -34.328125 C 41.972656 -34.171875 42.023438 -34.015625 42.078125 -33.859375 C 42.128906 -33.804688 42.179688 -33.78125 42.234375 -33.78125 C 42.984375 -33.40625 43.4375 -32.738281 43.59375 -31.78125 C 43.75 -31.03125 43.628906 -30.269531 43.234375 -29.5 C 42.835938 -28.726562 42.265625 -28.15625 41.515625 -27.78125 C 40.660156 -27.414062 39.796875 -27.191406 38.921875 -27.109375 C 38.046875 -27.023438 37.15625 -26.878906 36.25 -26.671875 C 35.289062 -26.503906 34.316406 -26.328125 33.328125 -26.140625 C 32.347656 -25.960938 31.378906 -25.738281 30.421875 -25.46875 C 28.503906 -24.9375 26.597656 -24.363281 24.703125 -23.75 C 22.816406 -23.132812 20.941406 -22.429688 19.078125 -21.640625 C 17.910156 -21.160156 16.78125 -20.65625 15.6875 -20.125 C 14.59375 -19.59375 13.488281 -19.03125 12.375 -18.4375 L 12.859375 -13.25 C 12.859375 -13.195312 12.859375 -13.15625 12.859375 -13.125 C 12.859375 -13.101562 12.859375 -13.039062 12.859375 -12.9375 L 13.09375 -13.09375 C 14 -13.519531 14.890625 -13.90625 15.765625 -14.25 C 16.648438 -14.59375 17.515625 -14.953125 18.359375 -15.328125 L 25.15625 -17.96875 C 25.738281 -18.226562 26.332031 -18.460938 26.9375 -18.671875 C 27.550781 -18.890625 28.15625 -19.109375 28.75 -19.328125 C 29.707031 -19.691406 30.664062 -20.046875 31.625 -20.390625 C 32.582031 -20.742188 33.539062 -21.078125 34.5 -21.390625 L 37.609375 -22.359375 C 38.035156 -22.460938 38.457031 -22.609375 38.875 -22.796875 C 39.300781 -22.984375 39.726562 -23.128906 40.15625 -23.234375 C 41.707031 -23.554688 42.972656 -23.421875 43.953125 -22.828125 C 44.941406 -22.242188 45.726562 -21.394531 46.3125 -20.28125 C 46.894531 -19.164062 47.332031 -17.941406 47.625 -16.609375 C 47.914062 -15.273438 48.085938 -14.050781 48.140625 -12.9375 C 48.191406 -12.238281 48.070312 -11.609375 47.78125 -11.046875 C 47.488281 -10.492188 47.101562 -10.03125 46.625 -9.65625 Z M 27.3125 -26.59375 C 26.082031 -26.21875 24.84375 -25.84375 23.59375 -25.46875 C 22.34375 -25.09375 21.101562 -24.691406 19.875 -24.265625 C 19.082031 -24.054688 18.300781 -23.832031 17.53125 -23.59375 C 16.757812 -23.351562 16 -23.128906 15.25 -22.921875 C 15.09375 -22.015625 14.664062 -21.265625 13.96875 -20.671875 C 15.9375 -21.691406 17.945312 -22.597656 20 -23.390625 C 22.050781 -24.191406 24.0625 -24.992188 26.03125 -25.796875 C 26.457031 -26.003906 26.910156 -26.1875 27.390625 -26.34375 Z M 9.65625 1.03125 C 10.25 1.09375 10.914062 1.109375 11.65625 1.078125 C 12.40625 1.046875 12.832031 1.003906 12.9375 0.953125 C 13.039062 0.953125 13.117188 0.925781 13.171875 0.875 C 13.492188 0.71875 13.8125 0.554688 14.125 0.390625 C 14.445312 0.234375 14.742188 0.078125 15.015625 -0.078125 C 15.648438 -0.398438 16.273438 -0.71875 16.890625 -1.03125 C 17.503906 -1.351562 18.101562 -1.675781 18.6875 -2 L 18.6875 -2.15625 C 17.988281 -1.882812 17.265625 -1.613281 16.515625 -1.34375 C 15.773438 -1.082031 15.035156 -0.820312 14.296875 -0.5625 C 13.546875 -0.289062 12.785156 -0.0078125 12.015625 0.28125 C 11.242188 0.570312 10.457031 0.820312 9.65625 1.03125 Z M 9.65625 1.03125 "/></g></g></g><g fill="#b2d12e" fill-opacity="1"><g transform="translate(305.997313, 205.249499)"><g><path d="M 36.25 -27.140625 C 35.5625 -25.867188 34.585938 -24.925781 33.328125 -24.3125 C 32.078125 -23.695312 30.707031 -23.335938 29.21875 -23.234375 C 27.726562 -23.128906 26.222656 -23.15625 24.703125 -23.3125 C 23.191406 -23.46875 21.820312 -23.65625 20.59375 -23.875 C 20.226562 -23.976562 19.867188 -24.054688 19.515625 -24.109375 C 19.171875 -24.160156 18.8125 -24.210938 18.4375 -24.265625 C 18.550781 -23.785156 18.660156 -23.304688 18.765625 -22.828125 C 18.867188 -22.347656 18.945312 -21.898438 19 -21.484375 C 19.375 -19.515625 19.734375 -17.539062 20.078125 -15.5625 C 20.421875 -13.59375 20.703125 -11.625 20.921875 -9.65625 C 21.023438 -8.695312 21.050781 -7.722656 21 -6.734375 C 20.945312 -5.753906 20.785156 -4.8125 20.515625 -3.90625 C 20.148438 -2.582031 19.351562 -1.359375 18.125 -0.234375 C 17.695312 0.128906 17.125 0.429688 16.40625 0.671875 C 15.6875 0.910156 15.085938 0.738281 14.609375 0.15625 C 14.179688 -0.425781 13.925781 -1.078125 13.84375 -1.796875 C 13.769531 -2.515625 13.679688 -3.21875 13.578125 -3.90625 C 13.523438 -4.382812 13.457031 -4.875 13.375 -5.375 C 13.289062 -5.882812 13.222656 -6.410156 13.171875 -6.953125 C 12.796875 -8.222656 12.476562 -9.578125 12.21875 -11.015625 C 12.269531 -10.585938 12.320312 -10.175781 12.375 -9.78125 C 12.425781 -9.382812 12.476562 -8.972656 12.53125 -8.546875 C 12.632812 -7.847656 12.726562 -7.148438 12.8125 -6.453125 C 12.894531 -5.765625 12.988281 -5.078125 13.09375 -4.390625 C 13.144531 -3.859375 13.207031 -3.3125 13.28125 -2.75 C 13.363281 -2.195312 13.328125 -1.679688 13.171875 -1.203125 C 13.171875 -1.148438 13.144531 -1.148438 13.09375 -1.203125 C 12.769531 -1.679688 12.582031 -2.25 12.53125 -2.90625 C 12.476562 -3.570312 12.398438 -4.171875 12.296875 -4.703125 L 11.578125 -8.859375 C 11.367188 -10.242188 11.15625 -11.613281 10.9375 -12.96875 C 10.726562 -14.332031 10.515625 -15.707031 10.296875 -17.09375 C 10.035156 -18.738281 9.785156 -20.382812 9.546875 -22.03125 C 9.304688 -23.6875 9.050781 -25.335938 8.78125 -26.984375 C 6.226562 -27.992188 3.78125 -29.113281 1.4375 -30.34375 C 1.382812 -30.394531 1.382812 -30.445312 1.4375 -30.5 C 1.488281 -30.550781 1.539062 -30.550781 1.59375 -30.5 C 2.769531 -29.96875 3.957031 -29.445312 5.15625 -28.9375 C 6.351562 -28.4375 7.535156 -27.972656 8.703125 -27.546875 C 8.648438 -27.816406 8.597656 -28.054688 8.546875 -28.265625 C 8.492188 -28.472656 8.441406 -28.6875 8.390625 -28.90625 C 7.484375 -29.28125 6.585938 -29.664062 5.703125 -30.0625 C 4.828125 -30.457031 3.9375 -30.84375 3.03125 -31.21875 C 2.175781 -31.644531 1.644531 -32.363281 1.4375 -33.375 C 1.226562 -34.382812 1.332031 -35.265625 1.75 -36.015625 C 2.125 -36.597656 2.707031 -37.070312 3.5 -37.4375 C 4.300781 -37.8125 5.050781 -37.867188 5.75 -37.609375 L 6.234375 -37.359375 C 5.753906 -39.117188 5.242188 -40.875 4.703125 -42.625 C 4.171875 -44.382812 3.613281 -46.117188 3.03125 -47.828125 C 2.820312 -48.515625 2.898438 -49.140625 3.265625 -49.703125 C 3.640625 -50.265625 4.117188 -50.648438 4.703125 -50.859375 C 4.648438 -51.234375 4.71875 -51.550781 4.90625 -51.8125 C 5.09375 -52.082031 5.296875 -52.320312 5.515625 -52.53125 C 6.835938 -53.4375 8.285156 -53.742188 9.859375 -53.453125 C 11.429688 -53.160156 12.851562 -52.695312 14.125 -52.0625 C 15.457031 -51.363281 16.75 -50.628906 18 -49.859375 C 19.25 -49.085938 20.488281 -48.300781 21.71875 -47.5 C 24.21875 -45.851562 26.648438 -44.082031 29.015625 -42.1875 C 31.390625 -40.300781 33.722656 -38.347656 36.015625 -36.328125 C 36.648438 -35.796875 36.914062 -35.1875 36.8125 -34.5 C 37.289062 -33.695312 37.609375 -32.894531 37.765625 -32.09375 C 37.921875 -30.976562 37.851562 -30.019531 37.5625 -29.21875 C 37.269531 -28.425781 36.832031 -27.734375 36.25 -27.140625 Z M 26.671875 -35.6875 C 25.492188 -36.382812 24.332031 -37.0625 23.1875 -37.71875 C 22.050781 -38.382812 20.894531 -39.039062 19.71875 -39.6875 C 18.863281 -40.113281 17.984375 -40.550781 17.078125 -41 C 16.179688 -41.445312 15.28125 -41.859375 14.375 -42.234375 C 14.800781 -40.742188 15.195312 -39.226562 15.5625 -37.6875 C 15.9375 -36.144531 16.285156 -34.601562 16.609375 -33.0625 C 18.367188 -32.46875 20.070312 -31.988281 21.71875 -31.625 C 23.050781 -31.351562 24.394531 -31.148438 25.75 -31.015625 C 27.101562 -30.878906 28.445312 -30.867188 29.78125 -30.984375 C 30.050781 -30.984375 30.332031 -30.992188 30.625 -31.015625 C 30.914062 -31.046875 31.164062 -31.085938 31.375 -31.140625 L 32.015625 -31.296875 C 31.910156 -31.515625 31.804688 -31.675781 31.703125 -31.78125 C 31.171875 -32.632812 30.425781 -33.363281 29.46875 -33.96875 C 28.507812 -34.582031 27.578125 -35.15625 26.671875 -35.6875 Z M 22.515625 -24.984375 C 21.828125 -25.097656 21.109375 -25.21875 20.359375 -25.34375 C 19.617188 -25.476562 18.875 -25.628906 18.125 -25.796875 C 18.175781 -25.679688 18.203125 -25.570312 18.203125 -25.46875 C 18.203125 -25.363281 18.226562 -25.257812 18.28125 -25.15625 C 18.445312 -25.101562 18.59375 -25.0625 18.71875 -25.03125 C 18.851562 -25 19 -24.984375 19.15625 -24.984375 C 20.707031 -24.773438 22.289062 -24.578125 23.90625 -24.390625 C 25.53125 -24.203125 27.113281 -24.191406 28.65625 -24.359375 L 31.703125 -24.828125 C 31.703125 -24.878906 31.421875 -24.878906 30.859375 -24.828125 C 30.296875 -24.773438 30.015625 -24.773438 30.015625 -24.828125 C 28.691406 -24.671875 27.363281 -24.617188 26.03125 -24.671875 C 24.695312 -24.722656 23.523438 -24.828125 22.515625 -24.984375 Z M 18.53125 -10.9375 C 18.632812 -9.601562 18.671875 -8.242188 18.640625 -6.859375 C 18.617188 -5.484375 18.285156 -4.179688 17.640625 -2.953125 L 17.8125 -2.71875 C 18.125 -2.875 18.390625 -3.0625 18.609375 -3.28125 C 19.191406 -4.5 19.441406 -5.773438 19.359375 -7.109375 C 19.285156 -8.441406 19.113281 -9.769531 18.84375 -11.09375 L 18.359375 -13.578125 C 18.304688 -13.523438 18.304688 -13.335938 18.359375 -13.015625 C 18.410156 -12.691406 18.410156 -12.53125 18.359375 -12.53125 Z M 18.53125 -10.9375 "/></g></g></g><g fill="#000000" fill-opacity="1"><g transform="translate(98.494004, 249.627548)"><g><path d="M 18.21875 0.65625 C 14.863281 0.65625 11.65625 0.125 8.59375 -0.9375 C 5.53125 -2.007812 2.828125 -3.570312 0.484375 -5.625 L 6.328125 -12.59375 C 8.203125 -11.113281 10.171875 -9.984375 12.234375 -9.203125 C 14.304688 -8.429688 16.425781 -8.046875 18.59375 -8.046875 C 20.03125 -8.046875 21.117188 -8.28125 21.859375 -8.75 C 22.597656 -9.21875 22.96875 -9.847656 22.96875 -10.640625 L 22.96875 -10.75 C 22.96875 -11.539062 22.546875 -12.195312 21.703125 -12.71875 C 20.859375 -13.25 19.132812 -13.820312 16.53125 -14.4375 C 14.519531 -14.90625 12.640625 -15.414062 10.890625 -15.96875 C 9.140625 -16.53125 7.632812 -17.25 6.375 -18.125 C 5.113281 -19.007812 4.113281 -20.109375 3.375 -21.421875 C 2.632812 -22.742188 2.265625 -24.359375 2.265625 -26.265625 L 2.265625 -26.375 C 2.265625 -28.132812 2.609375 -29.753906 3.296875 -31.234375 C 3.984375 -32.710938 4.945312 -33.984375 6.1875 -35.046875 C 7.425781 -36.109375 8.957031 -36.945312 10.78125 -37.5625 C 12.601562 -38.175781 14.648438 -38.484375 16.921875 -38.484375 C 20.128906 -38.484375 23.007812 -38.054688 25.5625 -37.203125 C 28.125 -36.359375 30.429688 -35.109375 32.484375 -33.453125 L 27.234375 -26.046875 C 25.503906 -27.273438 23.71875 -28.203125 21.875 -28.828125 C 20.039062 -29.460938 18.296875 -29.78125 16.640625 -29.78125 C 15.378906 -29.78125 14.429688 -29.546875 13.796875 -29.078125 C 13.171875 -28.609375 12.859375 -28.03125 12.859375 -27.34375 L 12.859375 -27.234375 C 12.859375 -26.367188 13.300781 -25.679688 14.1875 -25.171875 C 15.070312 -24.671875 16.828125 -24.132812 19.453125 -23.5625 C 23.742188 -22.625 27.160156 -21.304688 29.703125 -19.609375 C 32.242188 -17.921875 33.515625 -15.3125 33.515625 -11.78125 L 33.515625 -11.671875 C 33.515625 -9.765625 33.144531 -8.046875 32.40625 -6.515625 C 31.664062 -4.984375 30.628906 -3.6875 29.296875 -2.625 C 27.960938 -1.5625 26.347656 -0.75 24.453125 -0.1875 C 22.566406 0.375 20.488281 0.65625 18.21875 0.65625 Z M 18.21875 0.65625 "/></g></g></g><g fill="#000000" fill-opacity="1"><g transform="translate(133.727628, 249.627548)"><g><path d="M 3.625 0 L 3.625 -37.828125 L 14.109375 -37.828125 L 14.109375 0 Z M 3.625 0 "/></g></g></g><g fill="#000000" fill-opacity="1"><g transform="translate(151.398478, 249.627548)"><g><path d="M 3.34375 0 L 3.34375 -37.828125 L 13.140625 -37.828125 L 28.703125 -17.828125 L 28.703125 -37.828125 L 39.078125 -37.828125 L 39.078125 0 L 29.9375 0 L 13.734375 -20.75 L 13.734375 0 Z M 3.34375 0 "/></g></g></g><g fill="#000000" fill-opacity="1"><g transform="translate(193.81933, 249.627548)"><g><path d="M 22.640625 0.75 C 19.722656 0.75 17.003906 0.265625 14.484375 -0.703125 C 11.960938 -1.671875 9.789062 -3.007812 7.96875 -4.71875 C 6.15625 -6.4375 4.722656 -8.5 3.671875 -10.90625 C 2.628906 -13.320312 2.109375 -15.957031 2.109375 -18.8125 L 2.109375 -18.921875 C 2.109375 -21.660156 2.617188 -24.234375 3.640625 -26.640625 C 4.671875 -29.054688 6.085938 -31.140625 7.890625 -32.890625 C 9.691406 -34.640625 11.832031 -36.023438 14.3125 -37.046875 C 16.800781 -38.078125 19.503906 -38.59375 22.421875 -38.59375 C 25.742188 -38.59375 28.640625 -38.113281 31.109375 -37.15625 C 33.578125 -36.195312 35.800781 -34.851562 37.78125 -33.125 L 31.625 -25.671875 C 30.289062 -26.785156 28.898438 -27.65625 27.453125 -28.28125 C 26.015625 -28.914062 24.359375 -29.234375 22.484375 -29.234375 C 21.117188 -29.234375 19.847656 -28.960938 18.671875 -28.421875 C 17.503906 -27.890625 16.488281 -27.160156 15.625 -26.234375 C 14.757812 -25.316406 14.070312 -24.226562 13.5625 -22.96875 C 13.0625 -21.707031 12.8125 -20.359375 12.8125 -18.921875 L 12.8125 -18.8125 C 12.8125 -15.75 13.773438 -13.222656 15.703125 -11.234375 C 17.628906 -9.253906 20.085938 -8.265625 23.078125 -8.265625 C 24.378906 -8.265625 25.523438 -8.398438 26.515625 -8.671875 C 27.503906 -8.941406 28.375 -9.332031 29.125 -9.84375 L 29.125 -14.4375 L 21.734375 -14.4375 L 21.734375 -22.109375 L 39.078125 -22.109375 L 39.078125 -5.140625 C 37.097656 -3.472656 34.726562 -2.070312 31.96875 -0.9375 C 29.207031 0.1875 26.097656 0.75 22.640625 0.75 Z M 22.640625 0.75 "/></g></g></g><g fill="#000000" fill-opacity="1"><g transform="translate(235.375554, 249.627548)"><g><path d="M 3.34375 0 L 3.34375 -37.828125 L 13.84375 -37.828125 L 13.84375 -23.671875 L 27.296875 -23.671875 L 27.296875 -37.828125 L 37.78125 -37.828125 L 37.78125 0 L 27.296875 0 L 27.296875 -14.375 L 13.84375 -14.375 L 13.84375 0 Z M 3.34375 0 "/></g></g></g></svg>